<svg width="1440" height="1306" viewBox="0 0 1440 1306" fill="none" xmlns="http://www.w3.org/2000/svg">
<g opacity="0.1">
<path d="M103.932 91.5222C106.248 94.2635 104.46 96.6905 102.388 98.3265C100.441 99.6943 98.4594 99.7349 96.4614 99.1117L96.1939 98.9844C93.6946 99.434 92.4484 97.2019 91.219 95.6335C90.2573 94.1924 88.7774 93.1603 87.4227 91.86C87.4227 91.86 87.1552 91.7327 86.8877 91.6054C86.102 91.887 84.9066 91.6459 84.2631 92.3231C84.6898 93.5095 85.5094 94.5551 86.4542 95.3326C87.3991 96.11 87.8258 97.2965 88.6453 98.3421C89.1973 99.2604 88.1949 101.406 87.0334 102.492C85.1031 104.523 82.8544 104.437 80.3383 104.222C79.4104 104.109 77.9643 104.404 77.1617 104.022C76.8942 103.894 76.3591 103.64 76.0916 103.513C74.5947 101.817 72.705 100.262 71.4588 98.0298C71.1743 97.2388 70.6392 96.9842 70.0872 96.0659C69.393 94.7521 68.5904 94.3702 67.5541 95.1881C66.5179 96.0061 65.4646 96.1605 64.2692 95.9194C65.6238 97.2196 66.7278 99.0562 68.0824 100.356C69.4371 101.657 70.006 103.239 70.4497 105.089C70.8764 106.275 70.1076 107.221 68.8038 107.911C65.9287 109.165 62.8944 109.36 59.7348 109.823C58.2887 110.118 57.2017 108.945 55.9893 108.041C55.7218 107.913 55.0444 107.263 54.2418 106.881C53.4392 106.499 53.0295 105.976 52.745 105.185C51.3565 102.558 49.057 100.48 48.1867 97.4436C47.1673 98.9253 46.1142 99.0796 44.7765 98.443C44.2414 98.1884 43.4388 97.8064 43.0629 98.6109C42.8123 99.1472 43.6149 99.5292 43.7571 99.9246C45.6638 102.143 47.4451 104.63 49.3517 106.848C49.7615 107.371 50.029 107.499 50.4388 108.021C51.7934 109.322 51.8442 111.313 50.5574 112.667C47.5908 115.516 43.7878 116.657 39.5411 115.947C38.6132 115.833 38.3287 115.042 37.7936 114.787C36.1715 113.36 34.2818 111.805 32.6596 110.377C30.2349 108.568 29.2392 105.799 27.4579 103.313C26.9059 102.394 26.7467 101.335 26.1947 100.417C26.0525 100.021 26.0525 100.021 25.5174 99.7667C22.7168 98.7616 20.9524 96.9385 19.4386 94.5792C17.6573 92.0925 15.3578 90.0147 13.1836 87.6689C11.294 86.114 9.9224 84.1501 8.67615 81.918C6.89482 79.4313 4.8629 77.4809 3.47441 74.8534C2.22815 72.6213 1.24944 70.5165 0.396019 68.1436C-0.0306911 66.9572 -0.457401 65.7708 -1.00941 64.8525C-2.6485 62.7612 -3.62722 60.6565 -3.69497 58.0019C-3.88802 55.6155 -5.25957 53.6516 -6.75642 51.9559C-8.39551 49.8646 -10.4274 47.9142 -12.0665 45.823C-12.6185 44.9047 -13.5464 44.7909 -14.0984 43.8726C-16.5571 40.7358 -16.5165 37.1494 -15.4227 33.4087C-15.0468 32.6042 -14.6709 31.7997 -14.5625 30.8679C-14.4541 29.9361 -13.8107 29.259 -12.8997 28.7091C-11.1862 28.5413 -9.63177 27.3143 -7.7929 26.8783C-5.16836 26.1606 -2.63525 27.0383 0.0231695 27.6479C2.68158 28.2575 5.48224 29.2626 7.90699 31.0721C9.11937 31.9769 10.8499 32.4727 12.5635 32.3048C14.9374 32.1234 17.1691 31.5466 19.4177 31.6334C22.0592 31.5793 24.5754 31.7934 27.2338 32.403C29.3572 32.758 30.854 34.4537 32.4762 35.8813C33.8308 37.1815 35.419 37.2818 37.1496 37.7776C37.6846 38.0323 38.0775 37.8914 38.1858 36.9596C38.1689 36.296 38.687 35.887 39.3643 36.5371C39.6319 36.6644 39.6319 36.6644 39.8994 36.7918C41.8636 36.0876 43.9869 36.4425 45.8258 36.0065C47.0043 35.584 48.0744 36.0933 49.1446 36.6026C50.4822 37.2392 51.8199 37.8758 53.1576 38.5124C54.1024 39.2899 55.0303 39.4037 55.816 39.122C57.1367 39.095 58.4575 39.068 59.636 38.6455C62.6534 37.7869 65.2948 37.7329 68.1124 39.4016C69.9852 40.2928 72.1085 40.6478 74.0727 39.9436C77.0901 39.0851 79.6232 39.9628 81.5129 41.5177C84.2052 43.4546 86.7721 45.6596 88.821 48.2737C90.1926 50.2376 91.9569 52.0606 93.9719 53.3474C96.1292 55.0296 97.7682 57.1209 99.4073 59.2121C101.866 62.3489 104.325 65.4858 107.176 68.4818C107.586 69.0046 107.853 69.1319 107.87 69.7955C108.741 72.8321 111.04 74.9098 113.214 77.2557C114.711 78.9514 115.548 80.6607 116.652 82.4972C116.794 82.8927 116.936 83.2882 117.204 83.4155C118.132 83.5293 117.881 84.0657 117.363 84.4747C117.238 84.7428 117.112 85.011 117.112 85.011C117.647 85.2656 117.898 84.7293 118.165 84.8566C118.558 84.7158 118.951 84.575 118.968 85.2386C119.11 85.6341 118.592 86.0431 118.325 85.9158C117.522 85.5338 117.539 86.1974 117.414 86.4656C115.859 87.6926 116.929 88.2019 117.749 89.2475C119.246 90.9432 120.743 92.639 122.114 94.6029C123.076 96.044 122.842 97.2439 121.146 98.0754C119.181 98.7796 117.217 99.4838 115.236 99.5243C113.523 99.6922 111.917 98.9283 111.081 97.219C110.244 95.5098 108.765 94.4777 107.535 92.9092C106.431 91.0727 105.361 90.5634 103.932 91.5222ZM55.6234 88.5268C54.8377 88.8085 54.4618 89.6129 53.9437 90.0219C54.7294 89.7403 55.3728 89.0631 55.6234 88.5268C55.8909 88.6541 56.0162 88.386 56.1415 88.1178C55.874 87.9905 55.7487 88.2586 55.6234 88.5268ZM94.8256 81.6159C93.7724 81.7702 93.2712 82.8429 92.3602 83.3927C93.1628 83.7747 93.4303 83.902 93.8062 83.0975C94.0568 82.5612 94.575 82.1522 94.8256 81.6159C95.0931 81.7432 95.2184 81.4751 94.8256 81.6159C94.9509 81.3477 94.9509 81.3477 94.8256 81.6159ZM113.008 84.6966C113.936 84.8104 114.22 85.6014 114.897 86.2515C115.04 86.647 115.575 86.9016 115.825 86.3653C116.343 85.9563 116.201 85.5608 115.541 85.5743C115.273 85.447 115.006 85.3197 115.399 85.1788C116.293 83.9654 115.223 83.4561 115.206 82.7924C114.295 83.3423 113.509 83.6239 113.008 84.6966C112.866 84.3011 112.866 84.3011 113.008 84.6966C112.74 84.5692 112.74 84.5692 113.008 84.6966ZM37.333 112.274L37.6006 112.401C37.333 112.274 37.4583 112.005 37.333 112.274C38.9789 109.451 41.1936 108.211 44.2279 108.016C45.5487 107.989 46.7272 107.566 48.1901 107.935C46.5511 105.843 45.0373 103.484 43.0054 101.534C42.1858 100.488 41.3663 99.4424 40.7973 97.8604C40.2453 96.9422 37.553 95.0053 36.7673 95.2869C34.8032 95.9911 32.6798 95.6362 30.841 96.0722C30.4481 96.213 30.0553 96.3539 29.5372 96.7629C27.3563 99.3307 27.3563 99.3307 28.887 102.354L29.0292 102.749C30.2586 104.318 30.7022 106.168 31.9315 107.736C33.8212 109.291 35.3181 110.987 37.333 112.274ZM75.6881 46.2849C75.9556 46.4122 75.9556 46.4122 75.6881 46.2849C75.9387 45.7485 76.1893 45.2122 76.1724 44.5486C76.1554 43.8849 76.406 43.3486 76.9411 43.6033C77.4762 43.8579 77.3509 44.1261 77.1003 44.6624C76.8666 45.8623 76.7582 46.7941 76.5246 47.9941C76.274 48.5304 76.8091 48.7851 77.2019 48.6442C77.4694 48.7716 77.5947 48.5034 77.4525 48.1079C77.5778 47.8398 77.5778 47.8398 77.7031 47.5716C77.9537 47.0353 77.527 45.8488 78.5971 46.3581C79.3997 46.7401 78.631 47.6854 78.5057 47.9536C77.8792 49.2944 78.1637 50.0853 79.3761 50.9901C79.6267 50.4538 79.4844 50.0583 79.735 49.522C79.5928 49.1265 79.5758 48.4629 80.5037 48.5767C81.1641 48.5632 80.7882 49.3676 80.9304 49.7631C80.5715 51.2312 80.0872 52.9675 81.96 53.8588C82.2106 53.3225 82.3189 52.3907 82.302 51.727C82.4273 51.4589 82.4104 50.7952 82.9454 51.0499C83.3383 50.909 83.3552 51.5727 83.2299 51.8408C83.1046 52.109 83.2468 52.5045 82.9962 53.0408C82.1192 54.9179 82.2953 56.6407 83.5246 58.2091C83.7582 57.0091 84.1341 56.2047 84.3678 55.0047C84.6184 54.4684 84.6184 54.4684 85.0112 54.3276C85.6716 54.314 85.8138 54.7095 85.5632 55.2458C85.0621 56.3185 85.3635 57.7731 84.2019 58.8592C84.0766 59.1274 84.0766 59.1274 84.0766 59.1274C84.4864 59.6502 84.6455 60.7093 85.4481 61.0913C85.6073 62.1504 86.4099 62.5324 87.3548 63.3099C87.5884 62.1099 88.0896 61.0372 88.3233 59.8373C88.5739 59.301 88.6992 59.0328 88.9667 59.1601C89.6271 59.1466 89.3765 59.6829 89.2512 59.9511C89.1428 60.8829 89.0345 61.8147 88.5333 62.8873C88.0321 63.96 88.1913 65.0191 89.1361 65.7966C89.1361 65.7966 89.0108 66.0647 89.4036 65.9239L89.5289 65.6557C89.9048 64.8512 90.1385 63.6513 90.5144 62.8468C90.6397 62.5786 90.6227 61.915 91.1578 62.1696C91.6929 62.4243 91.5676 62.6925 91.317 63.2288C90.9411 64.0333 90.958 64.6969 90.5821 65.5014C90.3315 66.0377 90.0809 66.574 90.0979 67.2377C90.9344 68.9469 92.1637 70.5153 93.2677 72.3519C93.3591 70.7565 93.7181 69.2883 94.3446 67.9475C94.4699 67.6794 94.4529 67.0157 94.988 67.2704C95.5231 67.525 95.3978 67.7932 95.1472 68.3295C94.7882 69.7976 94.5546 70.9976 93.9281 72.3384C93.5522 73.1429 93.5691 73.8065 93.9958 74.993C94.6054 72.9885 95.4825 71.1114 96.2343 69.5025C96.3596 69.2343 96.0751 68.4433 96.6101 68.698C97.1452 68.9526 97.2875 69.3481 97.0369 69.8844C96.2851 71.4934 95.8008 73.2297 95.049 74.8386C94.155 76.0521 94.8323 76.7022 95.3843 77.6205C95.5265 78.016 95.7941 78.1433 96.1869 78.0025L96.4375 77.4662C96.9218 75.7299 97.2638 73.5981 97.748 71.8618C97.9986 71.3255 98.3745 70.521 98.6251 69.9847C98.7504 69.7166 99.1433 69.5757 99.4108 69.703C99.9459 69.9577 99.553 70.0985 99.3024 70.6348C99.0518 71.1712 98.9265 71.4393 98.6759 71.9756C98.0664 73.9801 97.7244 76.1119 97.2401 77.8481C96.9895 78.3845 96.7389 78.9208 96.8812 79.3163C97.5585 79.9664 97.7176 81.0255 98.5202 81.4075C99.3229 81.7895 99.4651 82.1849 99.482 82.8486C99.8749 82.7078 100 82.4396 100.125 82.1714C100.752 80.8306 101.111 79.3625 101.737 78.0217C101.988 77.4854 102.239 76.9491 103.041 77.331C103.576 77.5857 103.058 77.9947 102.808 78.531L102.682 78.7992C101.93 80.4081 101.856 82.6672 100.302 83.8942C100.302 83.8942 99.9087 84.035 100.176 84.1624C100.854 84.8125 100.352 85.8851 101.03 86.5353C101.707 87.1854 101.456 87.7217 100.545 88.2715C101.49 89.049 102.401 88.4992 103.329 88.613C104.257 88.7268 104.775 88.3178 104.348 87.1313C104.223 87.3995 104.223 87.3995 104.223 87.3995C104.098 87.6677 103.58 88.0767 103.312 87.9493C103.045 87.822 103.295 87.2857 103.421 87.0175C103.796 86.213 104.565 85.2677 104.941 84.4632C105.066 84.1951 105.317 83.6588 105.852 83.9134C106.387 84.1681 106.404 84.8317 106.011 84.9725C105.886 85.2407 105.493 85.3815 105.903 85.9043C107.064 84.8182 108.226 83.732 109.388 82.6459C109.906 82.2369 110.424 81.8279 110.834 82.3507C111.653 83.3963 112.029 82.5918 112.28 82.0555C112.798 81.6465 113.316 81.2375 113.976 81.224C112.337 79.1328 110.573 77.3097 108.934 75.2185C107.579 73.9182 107.528 71.9273 106.174 70.627C103.448 67.3629 100.721 64.0987 98.1205 60.5664C96.4814 58.4752 94.5748 56.2566 92.2922 54.8425C90.8123 53.8104 89.4577 52.5102 88.3537 50.6736C87.6595 49.3598 86.5724 48.1869 85.2347 47.5503C84.4321 47.1683 83.6125 46.1227 82.9352 45.4726C80.3513 42.6039 76.748 41.2168 73.2295 43.148C74.1574 43.2618 74.049 44.1936 74.7263 44.8438L74.8516 44.5756C75.1022 44.0393 75.3528 43.503 75.8879 43.7576C76.423 44.0123 75.9048 44.4212 76.0471 44.8167C75.6542 44.9576 75.6712 45.6212 75.6881 46.2849ZM83.0067 84.5137C83.1658 85.5728 83.0575 86.5046 83.2166 87.5638L83.4842 87.6911C84.4866 85.5458 85.489 83.4005 86.4914 81.2552C88.0966 82.0192 86.1324 82.7234 86.6844 83.6417C87.4701 83.36 87.846 82.5555 88.381 82.8102C88.9161 83.0648 89.0414 82.7966 89.4342 82.6558C90.203 81.7105 91.2392 80.8925 91.8827 80.2153C92.2755 80.0745 92.2586 79.4109 92.7936 79.6655C93.2034 80.1883 92.6853 80.5973 92.56 80.8655C91.9165 81.5426 91.0056 82.0925 90.2368 83.0378L90.1115 83.3059L90.3791 83.4333C90.9142 83.6879 91.1648 83.1516 91.2901 82.8834C92.0588 81.9381 92.9698 81.3883 93.6132 80.7111C94.1313 80.3021 94.917 80.0204 95.0762 81.0796C94.9509 81.3477 95.2184 81.4751 95.3437 81.2069C95.469 80.9387 95.8618 80.7979 95.5943 80.6706C95.3268 80.5433 95.1845 80.1478 95.1845 80.1478C93.9721 79.243 93.1526 78.1974 92.5837 76.6154C91.6049 74.5107 91.019 72.2651 89.6475 70.3012C88.2759 68.3373 87.2972 66.2326 85.8004 64.5368C83.6262 62.191 82.1124 59.8316 80.8492 56.9359C80.2803 55.3539 79.3185 53.9128 78.2314 52.7399C76.0573 50.394 74.1506 48.1755 72.8875 45.2798C72.4438 43.4297 71.2145 41.8613 68.9658 41.7745C68.3055 41.788 67.8957 41.2652 67.3606 41.0105C66.2905 40.5013 65.0951 40.2601 64.0418 40.4145C61.7932 40.3277 59.7037 41.3 57.472 41.8769C60.2896 43.5456 61.9456 46.3005 63.6017 49.0553C63.8184 47.1917 64.4449 45.8509 65.3389 44.6375C65.4642 44.3693 65.7148 43.833 66.2499 44.0876C66.785 44.3423 66.5344 44.8786 66.2838 45.4149C65.7826 46.4876 65.2814 47.5602 64.7802 48.6328C63.8861 49.8463 64.1876 51.3009 65.0071 52.3465C65.5591 53.2648 66.2534 54.5786 67.0729 55.6242C67.2151 56.0197 67.7671 56.938 68.2853 56.529C68.6781 56.3881 68.9287 55.8518 68.9118 55.1882C69.2877 54.3837 69.7889 53.3111 70.1648 52.5066C70.2901 52.2384 70.5407 51.7021 71.0757 51.9568C71.6108 52.2114 71.0927 52.6204 70.9674 52.8886C70.7168 53.4249 70.6084 54.3567 70.3578 54.893C69.8566 55.9656 69.3554 57.0383 68.4445 57.5881C68.8542 58.1109 69.264 58.6337 69.5485 59.4247C69.9244 58.6202 69.9074 57.9566 70.158 57.4202C70.5339 56.6158 70.7676 55.4158 71.411 54.7386C71.5363 54.4705 71.9291 54.3296 72.1967 54.457C72.4642 54.5843 72.3389 54.8525 72.2136 55.1206C71.5871 56.4614 70.9606 57.8022 70.3341 59.143C70.0835 59.6793 69.816 59.552 69.1556 59.5655C69.8329 60.2157 69.9921 61.2748 70.7947 61.6568C71.6888 60.4433 71.6549 59.116 72.2814 57.7752C72.4067 57.507 72.3897 56.8434 72.9248 57.098C73.4599 57.3527 73.3346 57.6208 73.3515 58.2845C73.2431 59.2163 73.0095 60.4162 72.2408 61.3616C71.472 62.3069 71.7565 63.0978 72.7013 63.8753C73.3278 62.5345 73.6868 61.0664 74.3133 59.7256C74.4386 59.4574 74.4216 58.7938 74.9567 59.0484C75.4918 59.3031 75.3665 59.5712 75.2412 59.8394C74.8653 60.6439 74.7569 61.5757 74.381 62.3802C72.9689 64.0026 73.5378 65.5846 74.6249 66.7575C74.8924 66.8848 74.7671 67.153 74.7671 67.153C75.3192 68.0713 75.6036 68.8622 76.6738 69.3715C77.385 71.3489 78.3637 73.4537 79.9858 74.8813C80.8054 75.9269 81.1982 75.786 82.0922 74.5726C82.4681 73.7681 82.844 72.9636 83.2199 72.1591C83.3452 71.891 83.8633 71.482 84.1309 71.6093C84.6659 71.8639 84.4154 72.4003 84.2901 72.6684C83.7889 73.7411 83.2877 74.8137 82.3767 75.3635C80.9476 76.3224 81.3743 77.5088 81.9263 78.4271C82.353 79.6136 82.5122 80.6727 82.7967 81.4636C82.8305 82.7909 82.7222 83.7227 83.0067 84.5137ZM39.5845 45.1645C39.4592 45.4326 39.4592 45.4326 39.7268 45.56C41.4911 47.383 42.3446 49.7559 43.5908 51.988C44.8371 54.22 45.6905 56.5929 46.6692 58.6977C47.0959 59.8841 48.3083 60.7889 48.735 61.9754C49.7137 64.0801 50.5502 65.7894 51.9218 67.7533C52.3315 68.2761 52.7413 68.7989 53.1511 69.3217C54.8071 72.0766 56.5884 74.5633 58.6373 77.1773C61.0959 80.3141 64.2149 83.4375 64.4588 87.8148C64.601 88.2103 64.618 88.8739 65.2783 88.8604C65.9387 88.8469 65.6881 89.3832 65.17 89.7922C64.259 90.3421 63.365 91.5555 62.454 92.1054C61.543 92.6552 62.4879 93.4326 62.2373 93.969C62.112 94.2371 62.7893 94.8873 63.1821 94.7464C64.7704 94.8467 66.3587 94.947 67.6455 93.5927C66.0234 92.1651 66.0234 92.1651 64.469 93.3921C64.3437 93.6603 64.0762 93.5329 63.9509 93.8011C63.558 93.9419 63.4327 94.2101 62.8977 93.9555C62.4879 93.4326 62.8807 93.2918 63.2735 93.151C64.452 92.7285 64.4012 90.7375 65.8473 90.4423C65.9556 89.5105 66.3315 88.7061 66.975 88.0289C67.1003 87.7607 67.2256 87.4926 66.958 87.3653C66.4229 87.1106 66.5483 86.8425 66.6736 86.5743C67.1747 85.5017 67.6759 84.429 68.1771 83.3564C68.3024 83.0882 68.2855 82.4246 68.8206 82.6792C69.3556 82.9339 69.105 83.4702 68.9797 83.7384C68.6038 84.5428 68.2279 85.3473 67.9943 86.5473C68.9053 85.9974 69.4234 85.5884 70.0668 84.9113C70.4597 84.7705 70.585 84.5023 71.12 84.7569C71.5298 85.2798 71.6551 85.0116 72.0479 84.8707C72.5661 84.4618 73.2095 83.7846 73.9952 83.5029C74.388 83.3621 74.9061 82.9531 75.0484 83.3486C75.7257 83.9987 76.2438 83.5897 76.7619 83.1807C77.1548 83.0399 77.5476 82.899 77.6898 83.2945C77.8321 83.69 77.4392 83.8308 77.3139 84.099C76.403 84.6488 75.492 85.1987 74.8486 85.8758C75.3836 86.1305 75.9018 85.7215 76.0271 85.4533C76.938 84.9035 77.5815 84.2263 78.6177 83.4083C79.0106 83.2675 79.2612 82.7312 79.7962 82.9858C80.3313 83.2405 79.5456 83.5221 79.6879 83.9176C80.0807 83.7768 80.5988 83.3678 80.9917 83.227C81.3845 83.0861 81.5098 82.818 81.3676 82.4225C81.0662 80.9679 80.6225 79.1178 80.3211 77.6632C79.5524 78.6085 78.892 78.622 79.1426 78.0857C79.5016 76.6176 78.2892 75.7128 77.7372 74.7945C75.5122 70.4577 73.0366 66.6572 70.2935 62.7294C68.905 60.1018 67.1237 57.6151 65.3424 55.1284C63.8286 52.769 62.5654 49.8733 61.0516 47.5139C58.576 43.7135 55.5993 40.9856 51.5863 39.0758C49.1784 37.9299 46.8045 38.1112 44.163 38.1653C43.1098 38.3196 42.3241 38.6013 41.3962 38.4875C40.0755 38.5145 39.0054 38.0052 37.8438 39.0914C37.7185 39.3595 37.1834 39.1049 36.5231 39.1184C36.1302 39.2593 35.3276 38.8773 34.525 38.4953C35.3446 39.5409 35.629 40.3319 36.3063 40.982C37.2681 42.4231 38.2299 43.8642 39.5845 45.1645ZM15.6249 38.3509C15.4996 38.619 15.4996 38.619 15.6249 38.3509C15.7671 38.7464 15.8924 38.4782 15.6249 38.3509C16.0008 37.5464 16.3767 36.7419 16.7526 35.9374C16.8779 35.6693 17.2538 34.8648 17.7889 35.1194C18.3239 35.3741 18.0733 35.9104 17.8227 36.4467C17.3215 37.5194 16.9626 38.9875 16.7289 40.1875C17.1048 39.383 17.3554 38.8467 17.7313 38.0422C17.8566 37.774 18.2494 37.6332 18.517 37.7605C18.7845 37.8878 18.6592 38.156 18.5339 38.4241C18.158 39.2286 18.175 39.8923 17.7991 40.6967C17.1726 42.0375 17.1726 42.0375 18.5102 42.6742C18.6017 41.0787 18.9606 39.6106 19.8547 38.3971C19.98 38.129 20.1053 37.8608 20.3728 37.9881C20.6403 38.1154 20.7826 38.5109 20.6573 38.7791C20.4067 39.3154 20.0308 40.1199 20.0477 40.7835C19.9394 41.7153 19.4382 42.788 19.5973 43.8471C19.7226 43.5789 19.8479 43.3108 19.9732 43.0426C20.2238 42.5063 19.9224 41.0517 20.8503 41.1655C21.6529 41.5475 20.8842 42.4928 20.7758 43.4246C20.6675 44.3564 20.3999 44.2291 21.3448 45.0065C21.3109 43.6792 22.3472 42.8612 22.5808 41.6613C22.8314 41.125 22.6892 40.7295 23.2243 40.9841C23.7593 41.2388 23.9016 41.6343 23.651 42.1706C23.1498 43.2432 22.7739 44.0477 22.5402 45.2477C22.1643 46.0521 21.7884 46.8566 22.7333 47.6341C22.7333 47.6341 22.7333 47.6341 22.8755 48.0296L23.0008 47.7614C23.3767 46.9569 23.3598 46.2933 23.7357 45.4888C23.861 45.2206 23.9863 44.9525 24.5213 45.2071C25.0564 45.4618 24.6636 45.6026 24.8058 45.9981C24.4299 46.8026 24.4468 47.4662 24.0709 48.2707C23.695 49.0752 23.8373 49.4707 24.2471 49.9935C24.623 49.189 24.4638 48.1299 25.2325 47.1845C25.3578 46.9164 25.6084 46.3801 26.1435 46.6347C26.6785 46.8893 26.4279 47.4257 26.3026 47.6938C25.8015 48.7665 25.8353 50.0938 25.3341 51.1664C25.0835 51.7027 25.1005 52.3664 25.9031 52.7483C26.279 51.9438 26.3873 51.012 26.7632 50.2076C26.8885 49.9394 27.0138 49.6712 27.4067 49.5304C28.067 49.5169 27.8164 50.0532 27.9587 50.4487C27.5828 51.2532 27.5997 51.9168 27.2238 52.7213C26.7226 53.7939 26.489 54.9939 27.7013 55.8987C28.2025 54.826 28.3109 53.8942 28.8121 52.8216C28.9374 52.5534 29.0627 52.2853 29.5978 52.5399C29.8653 52.6672 30.0075 53.0627 29.8822 53.3309C29.6316 53.8672 29.2557 54.6717 29.2727 55.3353C28.9137 56.8035 28.6801 58.0034 29.3743 59.3172L29.6418 59.4445L29.7671 59.1764C30.0008 57.9764 30.1092 57.0446 30.6104 55.9719C30.7357 55.7038 30.5934 55.3083 30.9862 55.1675C31.6466 55.154 31.7889 55.5494 31.5383 56.0858C31.4299 57.0176 31.054 57.822 31.0709 58.4857C31.2301 59.5448 30.0686 60.631 31.1556 61.8039C31.0303 62.0721 31.2979 62.1994 31.5654 62.3267C31.9582 62.1859 31.6907 62.0585 31.5485 61.6631C31.5146 60.3358 31.606 58.7403 32.2325 57.3995C32.4831 56.8632 32.7337 56.3269 33.5363 56.7089C34.0714 56.9635 33.5532 57.3725 33.3026 57.9088C32.5509 59.5178 32.3341 61.3814 32.7778 63.2315C33.1537 62.427 33.4043 61.8907 33.5126 60.9589C33.6379 60.6907 33.8885 60.1544 34.4236 60.409C34.9587 60.6637 34.5658 60.8045 34.7081 61.2C34.4575 61.7363 34.5997 62.1318 34.3491 62.6681C33.9902 64.1363 32.9708 65.6179 33.9326 67.059C33.9326 67.059 33.8073 67.3272 34.0749 67.4545L34.2001 67.1863C34.4338 65.9864 34.6675 64.7864 34.9011 63.5864C35.0264 63.3183 35.277 62.782 35.9374 62.7684C36.5978 62.7549 35.9543 63.4321 36.2219 63.5594C36.5063 64.3504 36.1304 65.1548 35.7545 65.9593C35.6462 66.8911 35.145 67.9638 35.697 68.8821C35.8223 68.6139 36.0729 68.0776 36.1982 67.8094C36.056 67.4139 36.1813 67.1458 36.4488 67.2731C36.7163 67.4004 36.9839 67.5278 37.1261 67.9232C37.2683 68.3187 37.143 68.5869 37.0177 68.855C36.7841 70.055 36.1576 71.3958 36.7265 72.9777C36.7265 72.9777 36.7265 72.9777 36.6012 73.2459C36.6012 73.2459 36.6012 73.2459 36.7265 72.9777C36.7265 72.9777 36.7265 72.9777 36.459 72.8504C36.9771 72.4414 36.8349 72.0459 36.9602 71.7778C37.0685 70.846 37.1769 69.9142 37.8203 69.237C37.9456 68.9688 37.9287 68.3052 38.4638 68.5598C38.9988 68.8145 38.8735 69.0827 38.8905 69.7463C38.6568 70.9463 38.5654 72.5417 38.3317 73.7417C38.2234 74.6735 38.2403 75.3371 38.6501 75.8599C39.1682 75.4509 38.7585 74.9281 38.8838 74.66C39.0091 74.3918 39.1343 74.1236 39.4019 74.251C39.6694 74.3783 39.5441 74.6464 39.6864 75.0419C39.578 75.9737 39.3443 77.1737 39.236 78.1055C39.0023 79.3055 39.2868 80.0964 40.2316 80.8739C40.3231 79.2784 39.219 77.4419 40.8987 75.9467C41.024 75.6785 41.0071 75.0149 41.8097 75.3969C42.3448 75.6515 42.0942 76.1878 41.9689 76.456C41.0748 77.6695 41.234 78.7286 41.2679 80.0559C41.4271 81.115 41.5862 82.1741 41.085 83.2468C40.9598 83.5149 41.102 83.9104 41.3695 84.0377C41.8707 82.9651 41.9791 82.0333 42.2127 80.8333C42.338 80.5652 42.1958 80.1697 42.5886 80.0289C42.8562 80.1562 43.1237 80.2835 43.2659 80.679C43.1576 81.6108 43.4421 82.4018 43.3337 83.3336C42.7072 84.6744 42.7411 86.0016 43.4353 87.3154C43.5776 87.7109 42.6666 88.2607 43.7367 88.77C44.3632 87.4292 44.9897 86.0884 45.3487 84.6203C45.5993 84.084 45.8499 83.5477 46.3849 83.8023C47.0453 83.7888 46.4019 84.466 46.5441 84.8614C46.4696 87.1205 44.8069 89.2793 45.9278 91.7795C45.9278 91.7795 45.8025 92.0477 45.6772 92.3159C45.5519 92.584 45.2844 92.4567 45.0169 92.3294C44.6071 91.8066 43.8045 91.4246 43.3947 90.9018C42.3246 90.3925 41.505 89.3469 41.2036 87.8923C40.4755 85.2512 39.3545 82.751 38.1083 80.5189C36.31 77.3686 35.0299 73.8092 33.3569 70.3907C32.1107 68.1587 31.5079 65.2494 29.8688 63.1582C28.7817 61.9853 28.2127 60.4033 27.5185 59.0896C25.3105 55.4164 23.6206 51.3343 21.0197 47.8019C20.6099 47.2791 20.2001 46.7563 19.9326 46.629C18.7202 45.7242 17.5079 44.8194 16.8136 43.5057C15.4251 40.8781 13.3763 38.2641 11.5949 35.7774C10.3487 33.5453 9.27854 33.036 8.2084 32.5267C5.24858 30.4625 2.18039 29.3301 -1.40593 28.6067C-3.79681 28.1245 -6.18769 27.6422 -8.79529 29.0235C-9.70626 29.5734 -10.4919 29.855 -11.4029 30.4049C-13.3671 31.1091 -13.743 31.9135 -13.8174 34.1726C-13.2993 33.7636 -13.3162 33.1 -12.7981 32.691C-12.9404 32.2955 -12.4222 31.8865 -12.28 32.282C-12.1377 32.6775 -12.263 32.9456 -12.3883 33.2138C-13.2824 34.4273 -13.9089 35.7681 -14.5354 37.1089C-15.1619 38.4497 -14.8604 39.9043 -14.559 41.3589C-14.0578 40.2863 -14.0748 39.6226 -13.9664 38.6908C-13.7666 36.1636 -12.4798 34.8092 -10.5325 33.4414C-10.1397 33.3006 -10.0144 33.0324 -9.60463 33.5552C-9.19486 34.078 -9.58769 34.2189 -9.98052 34.3597C-11.0168 35.1777 -10.9829 36.505 -11.6094 37.8458C-11.7347 38.114 -11.7178 38.7776 -11.8431 39.0458C-12.5779 41.3184 -12.6524 43.5774 -10.888 45.4005C-10.888 45.4005 -10.7458 45.796 -10.6205 45.5278C-10.6205 45.5278 -10.6205 45.5278 -10.7627 45.1324C-11.0641 43.6777 -10.9727 42.0823 -10.6138 40.6142C-10.2548 39.1461 -10.0381 37.2824 -8.60897 36.3236C-8.21614 36.1828 -7.96554 35.6465 -7.55577 36.1693C-7.41353 36.5647 -7.53883 36.8329 -7.93167 36.9737C-9.84502 39.6689 -10.1701 42.4643 -9.29974 45.5008C-9.14057 46.5599 -9.40811 46.4326 -10.336 46.3188C-9.5334 46.7008 -9.51647 47.3644 -8.71386 47.7464C-8.7308 47.0827 -8.87304 46.6873 -8.62244 46.1509C-8.53102 44.5555 -8.43959 42.96 -7.27803 41.8739C-7.15273 41.6057 -6.77683 40.8013 -6.36706 41.3241C-5.83199 41.5787 -6.35012 41.9877 -6.60072 42.524C-7.47781 44.4011 -7.69453 46.2648 -7.37618 48.383C-6.62439 46.774 -6.14014 45.0378 -5.65588 43.3015C-5.53058 43.0333 -5.27998 42.497 -5.01245 42.6243C-4.47738 42.879 -4.72797 43.4153 -4.85327 43.6834C-5.33753 45.4197 -5.82179 47.156 -6.30604 48.8923C-6.5397 50.0923 -6.64806 51.0241 -5.31039 51.6607C-5.77097 49.1469 -5.03612 46.8743 -4.5688 44.4744C-4.33514 43.2745 -3.54947 42.9928 -2.63851 42.4429C-2.24567 42.3021 -1.85284 42.1613 -1.7106 42.5568C-1.56837 42.9522 -1.69366 43.2204 -2.0865 43.3612C-2.60463 43.7702 -2.99746 43.9111 -2.98053 44.5747C-4.34187 48.1881 -4.91755 51.5198 -3.10235 55.3338C-2.85176 54.7975 -2.72646 54.5294 -2.60116 54.2612C-2.00854 51.5931 -0.471081 49.7025 1.60145 48.0665C1.99428 47.9257 2.11958 47.6575 2.65465 47.9121C2.79689 48.3076 2.67159 48.5758 2.27876 48.7166C2.02816 49.2529 1.63533 49.3938 1.11719 49.8028C-0.562504 51.2979 -1.43959 53.175 -1.78161 55.3068C-1.88997 56.2386 -2.14057 56.7749 -2.24893 57.7067C-2.62483 58.5112 -2.48259 58.9067 -1.80528 59.5568C-1.67998 59.2887 -1.67998 59.2887 -1.55468 59.0205C-1.19573 57.5524 -0.443937 55.9434 0.182556 54.6026C0.433154 54.0663 0.825988 53.9255 1.09352 54.0528C1.62859 54.3074 1.378 54.8438 1.2527 55.1119C1.0021 55.6482 0.751504 56.1846 0.500907 56.7209C-0.250885 58.3298 -0.87738 59.6706 -0.826565 61.6616C-0.701268 61.3934 -0.701266 61.3934 -0.575967 61.1252C-0.125586 58.0617 2.33978 56.2849 4.00254 54.1261C4.12784 53.8579 4.64597 53.4489 4.78821 53.8444C5.32328 54.099 4.80514 54.508 4.67984 54.7762C4.17865 55.8488 3.40992 56.7941 2.37366 57.6121C0.0505276 59.7844 0.260517 62.8345 0.20297 65.7572C0.578865 64.9528 0.687225 64.021 0.937823 63.4846C1.42208 61.7483 2.44141 60.2667 3.1932 58.6578C3.4438 58.1214 3.96193 57.7124 4.497 57.9671C5.29961 58.3491 4.38863 58.8989 4.26334 59.1671C2.47528 61.594 1.75737 64.5302 1.03945 67.4665C0.914152 67.7347 0.663554 68.271 1.07333 68.7938C1.44922 67.9893 1.55758 67.0575 1.66594 66.1257C1.99103 63.3303 3.38625 61.0442 4.92371 59.1535C5.44184 58.7445 5.81774 57.9401 6.22751 58.4629C6.90481 59.113 5.99385 59.6628 5.74325 60.1991C4.20579 62.0898 3.2034 64.2351 2.73608 66.635C2.50242 67.835 3.07137 69.4169 1.37474 70.2484L1.51697 70.6439C1.80145 71.4348 2.08592 72.2258 2.63793 73.1441C2.76323 72.8759 2.76323 72.8759 2.88853 72.6078C2.82077 69.9532 4.216 67.6671 5.34369 65.2536C5.59428 64.7173 6.11242 64.3083 6.50525 64.1675C6.63055 63.8993 7.02338 63.7585 7.16562 64.154C7.43316 64.2813 7.30786 64.5495 7.18256 64.8176C6.53913 65.4948 6.28853 66.0311 5.91263 66.8356C4.91024 68.9809 4.03315 70.858 3.69113 72.9897C3.70807 73.6534 3.45747 74.1897 3.74195 74.9807C5.13044 77.6082 7.55519 79.4178 8.94369 82.0453C9.35346 82.5681 9.37039 83.2318 10.173 83.6137C10.2814 82.6819 10.3897 81.7501 10.3728 81.0865C10.1967 79.3637 10.6809 77.6274 11.4327 76.0185C11.6833 75.4822 11.8086 75.214 12.3437 75.4686C12.8788 75.7233 12.3606 76.1323 12.5029 76.5278C11.8933 78.5322 11.6766 80.3958 11.4599 82.2594C11.4768 82.9231 11.9035 84.1095 10.725 84.532C10.3322 84.6729 10.5997 84.8002 10.5997 84.8002C11.5615 86.2413 12.5233 87.6824 14.1285 88.4463C13.7932 85.6644 14.528 83.3918 15.6557 80.9784C15.781 80.7102 16.0316 80.1739 16.5667 80.4286C16.8342 80.5559 16.9765 80.9514 16.7259 81.4877C16.4753 82.024 16.2247 82.5603 15.9741 83.0966C15.097 84.9738 15.0225 87.2328 15.3409 89.3511C15.5 90.4102 16.963 90.7787 17.515 91.697C17.7825 91.8243 17.7825 91.8243 17.9248 92.2198C17.9248 92.2198 17.7995 92.4879 18.1923 92.3471L18.3176 92.0789C17.857 89.5652 18.1991 87.4334 19.3267 85.02C19.5773 84.4837 19.4182 83.4245 20.2208 83.8065C20.7558 84.0612 20.3799 84.8656 20.1293 85.402C19.3945 87.6746 18.9272 90.0745 19.3878 92.5882C19.53 92.9837 19.0119 93.3927 19.4216 93.9155C20.7932 95.8794 22.4323 97.9706 24.5726 98.9892C25.1076 99.2439 25.5005 99.1031 25.7511 98.5667C26.7704 97.0851 28.0573 95.7308 29.3441 94.3765C30.1128 93.4312 31.0238 92.8813 32.0601 92.0633C32.4529 91.9225 32.8457 91.7816 32.988 92.1771C33.3977 92.6999 32.7374 92.7135 32.6121 92.9816C31.8264 93.2633 31.183 93.9404 30.4143 94.8858C31.3422 94.9996 32.1278 94.7179 32.646 94.3089C33.8075 93.2227 35.1113 92.5321 36.1476 91.7141C36.5404 91.5732 37.0586 91.1643 37.2008 91.5597C37.343 91.9552 37.343 91.9552 37.7359 91.8144C38.1287 91.6735 38.3793 91.1372 38.9144 91.3919C39.3072 91.251 39.5747 91.3784 39.717 91.7738C39.8592 92.1693 39.4664 92.3102 39.0735 92.451C38.1456 92.3372 37.7697 93.1417 37.2516 93.5507C37.1263 93.8188 36.4659 93.8323 36.8757 94.3551C37.1432 94.4825 37.8205 95.1326 38.0711 94.5963C38.1964 94.3281 38.447 93.7918 38.8399 93.651C39.4833 92.9738 39.8592 92.1693 40.6449 91.8877C41.163 91.4787 41.4305 91.606 41.8403 92.1288C41.9826 92.5243 42.1248 92.9198 41.732 93.0606C40.1437 92.9603 39.6594 94.6966 38.6232 95.5146C39.6933 96.0239 40.6381 96.8013 41.3155 97.4514C41.7252 97.9742 42.1181 97.8334 42.3856 97.9607C43.9739 98.061 43.9739 98.061 45.386 96.4386C44.8509 96.1839 44.6004 96.7202 44.0822 97.1292C43.6894 97.2701 43.4388 97.8064 43.2966 97.4109C42.8868 96.8881 43.2796 96.7473 43.6725 96.6064C44.1906 96.1974 44.834 95.5203 44.5495 94.7293C44.5495 94.7293 44.6748 94.4611 44.8001 94.193C45.7111 93.6432 45.8195 92.7114 46.4629 92.0342C47.2316 91.0889 48.0004 90.1436 49.0366 89.3256C49.4295 89.1847 49.9476 88.7757 50.3574 89.2985C50.7671 89.8213 50.3743 89.9622 49.8562 90.3712C49.3211 90.1165 48.5524 91.0619 47.8006 92.6708C48.5862 92.3891 49.2466 92.3756 49.6225 91.5711C50.1237 90.4985 50.8924 89.5532 51.9287 88.7352C52.4468 88.3262 53.0733 86.9854 54.1604 88.1583C54.1604 88.1583 54.5532 88.0175 54.6785 87.7493C55.0714 87.6085 55.322 87.0722 55.7148 86.9313C56.1076 86.7905 56.3582 86.2542 56.768 86.777C57.3031 87.0316 56.7849 87.4406 56.6596 87.7088C56.3921 87.5815 56.2668 87.8496 56.1415 88.1178C56.2837 88.5133 56.5343 87.977 56.5343 87.977C56.9272 87.8361 57.4453 87.4271 57.8381 87.2863C58.231 87.1455 58.7491 86.7365 58.8914 87.1319C59.3011 87.6547 58.5155 87.9364 58.1226 88.0773C57.2117 88.6271 56.1754 89.4451 55.532 90.1222C56.8696 90.7589 56.6021 90.6315 57.6384 89.8135C58.6746 88.9955 59.8362 87.9094 60.8725 87.0914C61.2653 86.9506 61.7834 86.5416 61.9257 86.937C62.3354 87.4599 61.5498 87.7415 61.1569 87.8824C59.8531 88.573 58.8169 89.391 58.0481 90.3363C58.3157 90.4637 58.5832 90.591 58.7085 90.3228C60.0123 89.6322 61.0316 88.1505 62.2101 87.728L62.3354 87.4599C61.9087 86.2734 62.1424 85.0734 61.3228 84.0278C58.5628 79.4364 54.7665 75.6629 52.0064 71.0715C50.4927 68.7121 48.4607 66.7617 47.7326 64.1206C47.4481 63.3297 47.1637 62.5387 46.4864 61.8886C45.257 60.3202 44.4206 58.6109 43.5841 56.9016C42.7307 54.5288 41.6266 52.6922 40.3804 50.4601C38.5821 47.3098 36.6586 44.4276 34.4675 41.418C32.2764 38.4085 29.6924 35.5398 25.9639 34.421C22.8957 33.2886 19.4686 33.6243 16.292 33.4237C14.846 33.7189 14.3278 34.1279 14.5209 36.5143C14.4125 37.4461 15.2151 37.8281 15.6249 38.3509ZM68.9867 104.72C68.4347 103.802 68.2755 102.743 67.5982 102.093C65.8338 100.27 64.1947 98.1785 62.4303 96.3554C60.9335 94.6596 59.8295 92.8231 57.171 92.2135C55.3152 91.9858 53.8523 91.6174 52.2809 92.1807C50.7096 92.7441 49.4227 94.0984 47.7092 94.2663C48.5287 95.3119 49.3482 96.3575 49.6327 97.1484C50.6284 99.9168 52.6603 101.867 54.0488 104.495C54.3333 105.286 55.1359 105.668 55.6709 105.922C56.206 106.177 56.3144 105.245 56.7072 105.104C59.4232 102.791 62.0477 102.074 65.3834 103.333C66.4536 103.843 67.3984 104.62 68.9867 104.72ZM67.5947 91.6018C68.3973 91.9837 69.0746 92.6339 69.8772 93.0158C72.0345 94.6981 73.1554 97.1983 74.6692 99.5577C74.8114 99.9532 74.9537 100.349 75.4718 99.9396C78.5975 98.1493 81.7233 96.359 85.7024 96.9415C85.2927 96.4187 84.7576 96.1641 84.6154 95.7686C82.9763 93.6774 82.1228 91.3045 79.9656 89.6223C77.3986 87.4172 73.5617 87.2301 70.5613 88.7523C69.2575 89.443 68.631 90.7838 67.5947 91.6018ZM103.214 94.4584C102.93 93.6675 102.52 93.1447 102.11 92.6219C100.881 91.0534 99.7936 89.8805 98.439 88.5802C97.3519 87.4073 96.0143 86.7707 94.6766 86.1341C92.5363 85.1155 90.2877 85.0287 87.9476 86.5374C86.5185 87.4962 86.3018 89.3598 87.6564 90.6601C89.5461 92.215 91.4358 93.7699 92.8073 95.7338C93.3593 96.6521 94.0197 96.6386 94.9307 96.0887C97.6466 93.7756 100.254 92.3942 103.214 94.4584ZM120.668 94.8981C120.258 94.3752 120.116 93.9798 119.581 93.7251C118.904 93.075 118.226 92.4249 117.8 91.2384C117.373 90.052 116.804 88.47 115.074 87.9742C114.806 87.8469 114.538 87.7196 114.396 87.3241C112.364 85.3737 108.653 84.9185 106.313 86.4272C106.187 86.6953 105.92 86.568 106.062 86.9635C106.062 86.9635 106.079 87.6271 106.33 87.0908C106.455 86.8226 106.705 86.2863 106.597 87.2181C106.614 87.8818 106.631 88.5454 107.041 89.0682C107.735 90.382 108.947 91.2868 110.034 92.4597C110.712 93.1098 111.247 93.3645 112.158 92.8146C112.676 92.4056 113.604 92.5195 114.139 92.7741C116.279 93.7927 118.277 94.4158 120.668 94.8981ZM48.5085 110.053C46.2429 109.302 44.1365 109.611 41.9048 110.188C40.8516 110.342 39.8153 111.16 39.3142 112.233C38.5624 113.842 38.9721 114.365 40.4351 114.733C43.7539 115.329 46.2362 114.216 48.8268 112.171C50.3812 110.944 50.1137 110.817 48.5085 110.053ZM76.4336 101.381C76.8603 102.567 77.6629 102.949 78.7161 102.795C80.3044 102.895 81.6251 102.868 82.9459 102.841C84.6594 102.673 85.821 101.587 86.8403 100.105C87.2162 99.3009 86.9487 99.1736 86.4136 98.919C83.4707 97.5184 80.7378 99.1679 78.2555 100.281C77.4699 100.563 77.3615 101.495 76.4336 101.381ZM68.1096 106.597C66.7719 105.961 65.9693 105.579 65.1667 105.197C62.7589 104.051 60.3849 104.232 58.1871 106.136C57.7943 106.277 57.2761 106.686 57.6859 107.209C57.8282 107.605 58.2379 108.127 58.8983 108.114C61.8073 108.187 64.6994 107.597 68.1096 106.597ZM96.143 96.9935C97.623 98.0256 100.39 97.7034 101.944 96.4764C102.462 96.0674 102.32 95.6719 101.91 95.1491C100.038 94.2578 97.0201 95.1164 96.143 96.9935ZM81.2762 84.0179C80.2399 84.8359 79.5965 85.5131 78.5602 86.3311C79.2375 86.9812 80.0401 87.3632 80.4499 87.886C81.1272 88.5361 81.52 88.3953 81.6284 87.4635C81.7367 86.5317 81.5776 85.4725 81.2762 84.0179ZM117.525 96.0248C116.188 95.3881 114.725 95.0197 113.404 95.0467C113.011 95.1875 112.476 94.9329 112.493 95.5965C112.368 95.8647 112.778 96.3875 113.045 96.5148C113.58 96.7695 114.115 97.0241 114.901 96.7424C115.419 96.3334 116.472 96.1791 117.525 96.0248ZM60.1884 91.3549C61.9359 92.5144 62.4201 90.7781 63.3311 90.2282C63.7239 90.0874 63.5817 89.6919 63.4395 89.2964C63.2972 88.901 62.9044 89.0418 62.7791 89.3099C61.8681 89.8598 61.0994 90.8051 60.1884 91.3549ZM82.6071 89.5682C83.4605 91.9411 84.7304 89.9231 85.6584 90.037C84.8388 88.9913 83.4097 89.9502 82.6071 89.5682ZM94.6088 83.4795C95.2692 83.466 95.4284 84.5251 95.8043 83.7206C96.0549 83.1843 96.573 82.7753 96.6983 82.5072C96.8236 82.239 97.2164 82.0982 96.9489 81.9708C96.8067 81.5754 96.4138 81.7162 96.2885 81.9843C95.6451 82.6615 95.127 83.0705 94.6088 83.4795ZM96.0888 84.5116C96.3563 84.6389 96.6238 84.7662 96.8914 84.8936C97.4264 85.1482 97.677 84.6119 97.9276 84.0756C98.0529 83.8074 97.9107 83.4119 97.6432 83.2846C97.1081 83.03 96.9828 83.2981 96.8575 83.5663C96.9997 83.9618 96.6069 84.1026 96.0888 84.5116ZM79.1698 84.3266C78.5263 85.0038 77.6153 85.5536 76.9719 86.2308L77.2395 86.3581C77.8829 85.6809 78.7939 85.1311 79.1698 84.3266ZM34.7524 94.0002C36.0731 93.9732 36.449 93.1687 36.8249 92.3642C36.1815 93.0414 35.6633 93.4504 34.7524 94.0002ZM37.343 91.9552C37.343 91.9552 37.2177 92.2234 37.343 91.9552C37.2177 92.2234 37.2177 92.2234 37.2177 92.2234C37.2177 92.2234 37.2177 92.2234 37.343 91.9552C37.4853 92.3507 37.2177 92.2234 37.343 91.9552ZM77.737 48.8989C77.737 48.8989 77.6117 49.167 77.737 48.8989C77.6117 49.167 77.6117 49.167 77.737 48.8989C77.6117 49.167 77.737 48.8989 77.737 48.8989ZM-6.84111 48.6376C-6.84111 48.6376 -7.23395 48.7785 -6.84111 48.6376C-7.23395 48.7785 -6.96641 48.9058 -6.84111 48.6376C-6.96641 48.9058 -6.96641 48.9058 -6.84111 48.6376C-6.96641 48.9058 -6.96641 48.9058 -6.84111 48.6376ZM11.3515 83.1912C11.3515 83.1912 11.2093 82.7957 11.3515 83.1912C11.2093 82.7957 11.084 83.0639 11.3515 83.1912C11.084 83.0639 11.084 83.0639 11.3515 83.1912Z" fill="#040404"/>
<path d="M81.0825 84.208C81.2422 85.2633 81.6708 86.4455 81.4357 87.641C81.3265 88.5694 80.9317 88.7096 80.2511 88.0616C79.5706 87.4136 79.0329 87.1597 78.3523 86.5117C79.268 85.9642 80.0408 85.0226 81.0825 84.208Z" fill="#040404"/>
<path d="M112.652 84.772C113.298 84.0969 114.086 83.8162 114.732 83.1411C115.017 83.93 116.091 84.4383 115.051 85.2538C114.925 85.5212 115.193 85.6482 115.193 85.6482C115.856 85.6349 115.998 86.0294 115.479 86.4372C114.959 86.8449 114.69 86.7178 114.548 86.3234C114.137 85.8018 113.726 85.2803 112.652 84.772C112.92 84.8991 112.652 84.772 112.652 84.772Z" fill="#040404"/>
<path d="M59.9371 91.354C60.8539 90.8068 61.6277 89.8657 62.5445 89.3185C62.6706 89.0515 63.0659 88.9114 63.209 89.3053C63.352 89.6991 63.6212 89.826 63.0997 90.2331C62.1829 90.7803 61.6952 92.509 59.9371 91.354Z" fill="#040404"/>
<path d="M82.3509 89.755C83.5469 89.9961 84.7092 88.9106 85.4037 90.2238C84.4753 90.11 83.2046 92.1268 82.3509 89.755Z" fill="#040404"/>
<path d="M94.4299 83.8003C94.9521 83.3936 95.6005 82.7201 96.1226 82.3135C96.2489 82.0467 96.6448 81.9068 96.7882 82.3004C97.0578 82.4273 96.9316 82.694 96.5357 82.8339C96.2832 83.3675 95.7611 83.7741 95.6348 84.0409C95.2561 84.8412 94.6996 83.9271 94.4299 83.8003Z" fill="#040404"/>
<path d="M94.9393 82.059C94.6868 82.5925 94.1645 82.9992 94.0383 83.2659C93.6595 84.0661 93.1201 83.8125 92.5807 83.5588C93.2292 82.8854 93.608 82.0851 94.9393 82.059C94.6696 81.9322 94.9393 82.059 94.9393 82.059Z" fill="#040404"/>
<path d="M95.8932 84.8373C96.2878 84.6972 96.4136 84.4301 96.8082 84.29C97.2027 84.1499 97.1856 83.4885 97.5973 84.0098C97.866 84.1369 98.0089 84.5311 97.8831 84.7983C97.7573 85.0654 97.5056 85.5997 96.8423 85.6127C96.6994 85.2185 96.4307 85.0914 95.8932 84.8373Z" fill="#040404"/>
<path d="M78.9963 84.4978C78.4899 85.5637 77.6955 85.8434 77.0451 86.5163L76.7746 86.3896C77.5516 85.4503 78.0753 85.044 78.9963 84.4978Z" fill="#040404"/>
<path d="M34.49 93.7683C35.41 93.222 35.9332 92.8156 36.583 92.1426C36.2035 92.9423 35.824 93.742 34.49 93.7683Z" fill="#040404"/>
<path d="M55.4155 88.4824C55.0355 89.2818 54.5116 89.6881 53.717 89.9679C54.3676 89.2951 54.7475 88.4956 55.4155 88.4824Z" fill="#040404"/>
<path d="M31.4533 61.4535C31.3278 61.7205 31.8652 61.9752 31.471 62.1149C31.471 62.1149 31.2023 61.9875 31.0591 61.5932C31.3278 61.7205 31.3278 61.7205 31.4533 61.4535Z" fill="#040404"/>
<path d="M55.4166 88.4908C55.2725 88.0973 55.5427 88.2243 55.6689 87.9578C55.813 88.3513 55.813 88.3513 55.4166 88.4908Z" fill="#040404"/>
<path d="M56.4614 87.6826C56.4614 87.6826 56.2088 88.2158 56.0656 87.8226C56.1919 87.556 56.1919 87.556 56.4614 87.6826C56.5877 87.416 56.4614 87.6826 56.4614 87.6826Z" fill="#040404"/>
<path d="M37.1035 91.748C36.9771 92.014 37.2499 92.1417 37.1035 91.748C36.9771 92.014 36.9771 92.014 36.9771 92.014C36.9771 92.014 36.9771 92.014 37.1035 91.748C36.9771 92.014 37.1035 91.748 37.1035 91.748Z" fill="#040404"/>
<path d="M16.3912 38.4036C16.3912 38.4036 16.2651 38.6713 16.3912 38.4036C15.9974 38.5447 15.9974 38.5447 16.3912 38.4036C16.1235 38.2769 16.1235 38.2769 16.3912 38.4036Z" fill="#040404"/>
<path d="M23.6359 47.8214L23.5095 48.0874C23.5095 48.0874 23.2367 47.9597 23.6359 47.8214C23.3631 47.6937 23.6359 47.8214 23.6359 47.8214Z" fill="#040404"/>
<path d="M34.0297 66.9662L33.9028 67.2338C33.5085 67.3759 33.6354 67.1083 34.0297 66.9662C33.6354 67.1083 34.0297 66.9662 34.0297 66.9662Z" fill="#040404"/>
<path d="M94.673 81.9411C94.7991 81.6733 94.7991 81.6733 94.673 81.9411C95.0668 81.7999 94.9407 82.0677 94.673 81.9411C94.9407 82.0677 94.673 81.9411 94.673 81.9411Z" fill="#040404"/>
<path d="M76.42 46.5182L76.2933 46.7864C76.0263 46.6605 76.0263 46.6605 76.42 46.5182C76.0263 46.6605 76.0263 46.6605 76.42 46.5182Z" fill="#040404"/>
<path d="M29.708 58.9688C29.8496 59.3633 29.8496 59.3633 29.708 58.9688C29.8496 59.3633 29.582 59.2366 29.708 58.9688C29.582 59.2366 29.582 59.2366 29.708 58.9688Z" fill="#040404"/>
<path d="M112.799 85.1513C112.531 85.0247 112.531 85.0247 112.799 85.1513C112.657 84.7568 112.657 84.7568 112.799 85.1513C112.657 84.7568 112.925 84.8835 112.799 85.1513Z" fill="#040404"/>
<path d="M11.2586 82.8218C10.9897 82.6939 10.9897 82.6939 11.2586 82.8218C10.9897 82.6939 11.1143 82.4274 11.2586 82.8218C11.1143 82.4274 11.2586 82.8218 11.2586 82.8218Z" fill="#040404"/>
<path d="M89.4564 65.6322L89.3295 65.8998C88.9352 66.0419 89.0621 65.7743 89.4564 65.6322C89.0621 65.7743 89.0621 65.7743 89.4564 65.6322Z" fill="#040404"/>
<path d="M18.8765 90.7805C18.8765 90.7805 18.7505 91.0483 18.8765 90.7805C18.4828 90.9217 18.4828 90.9217 18.8765 90.7805C18.6089 90.6539 18.6089 90.6539 18.8765 90.7805Z" fill="#040404"/>
<path d="M90.3355 83.4436C90.3355 83.4436 90.2109 83.7101 90.3355 83.4436C90.0666 83.3157 90.0666 83.3157 90.3355 83.4436Z" fill="#040404"/>
<path d="M21.6546 90.4929C22.0172 89.033 23.0463 87.5597 23.4088 86.0998C23.5354 85.8331 23.5183 85.1731 24.0584 85.4264C24.5986 85.6797 24.472 85.9464 24.3455 86.213C23.966 87.013 23.983 87.6729 23.6035 88.4729C22.8444 90.0728 22.7519 91.6594 22.9295 93.3726C23.073 93.7659 23.3601 94.5525 22.6935 94.5659C21.9004 94.8459 22.2799 94.0459 22.1364 93.6526C21.9758 92.5994 21.9417 91.2795 20.8615 90.7729C20.5914 90.6463 20.4479 90.253 20.3043 89.8597C19.7302 88.2865 21.3749 84.82 22.8176 83.8666C23.2142 83.7266 23.3407 83.4599 23.8808 83.7132C24.0244 84.1065 23.8979 84.3732 23.7714 84.6398C22.2191 86.5198 21.7301 88.2464 21.6546 90.4929Z" fill="#040404"/>
<path d="M14.1569 75.4034C14.6653 74.3383 15.1737 73.2732 16.098 72.7268C16.4967 72.5868 17.0224 72.1805 17.1669 72.573C17.5829 73.0919 17.1843 73.2319 16.9301 73.7645C14.989 76.4411 14.2612 79.3565 14.0765 82.5244C14.2209 82.917 14.2383 83.5758 13.5681 83.5896C12.8979 83.6033 12.609 82.8182 12.8632 82.2857C13.0652 79.7766 13.1402 77.5337 14.1569 75.4034Z" fill="#040404"/>
<path d="M9.50926 72.1635C10.5263 70.0334 11.977 69.0808 12.8844 67.8757C13.0115 67.6094 13.2832 67.7357 13.5548 67.8619C13.8265 67.9881 13.971 68.3806 13.8439 68.6469C13.4625 69.4457 12.9366 69.852 12.5552 70.6508C10.8676 72.7946 9.99507 75.3172 10.0647 77.9523C9.93755 78.2185 10.0821 78.611 9.81042 78.4848C9.41161 78.6248 9.13994 78.4986 8.99541 78.1061C8.5792 77.5874 8.68893 76.6623 8.9432 76.1298C8.76386 74.4198 9.39953 73.0885 9.50926 72.1635Z" fill="#040404"/>
<path d="M11.1311 62.7428C11.5492 63.2608 11.4216 63.5268 10.8938 63.933C9.45543 65.5435 8.56265 67.406 7.54234 69.5345C7.03218 70.5987 6.79481 71.789 6.55743 72.9792C6.4299 73.2452 6.57514 73.6373 5.90204 73.6514C5.62925 73.5255 5.48401 73.1334 5.61155 72.8674C6.05089 69.1708 7.43612 65.586 10.3305 63.023C10.458 62.7569 10.8584 62.6168 11.1311 62.7428Z" fill="#040404"/>
<path d="M8.68694 69.7893C9.06886 68.9908 9.05133 68.3323 9.97752 67.786C10.377 67.646 10.5043 67.3798 10.6491 67.7721C10.9212 67.8982 10.7939 68.1644 10.6666 68.4306C9.12144 70.9662 8.24783 73.4879 7.9185 76.2618C7.79119 76.528 7.93602 76.9203 7.26445 76.9342C6.99231 76.8081 6.72017 76.682 6.84748 76.4158C6.68512 75.365 6.7949 74.4404 7.17681 73.6419C7.81334 72.311 8.05042 71.1202 8.68694 69.7893Z" fill="#040404"/>
<path d="M29.4597 91.9589C28.8083 92.6317 28.5718 93.8239 27.6495 94.3703C27.1249 94.7768 26.7272 94.9168 26.7444 95.5761C26.6175 95.8425 26.4907 96.1089 26.093 96.2489C25.8221 96.1225 25.678 95.7296 25.8049 95.4632C26.0413 94.271 26.4219 93.4717 26.6583 92.2796C26.912 91.7467 27.0389 91.4803 27.2925 90.9474C27.4194 90.681 27.4194 90.681 27.5462 90.4145C27.944 90.2745 28.088 90.6674 27.9612 90.9338C27.9784 91.5931 28.3761 91.4531 28.6298 90.9203C28.7566 90.6538 28.7394 89.9945 29.2812 90.2474C29.967 90.8931 29.9842 91.5524 29.4597 91.9589Z" fill="#040404"/>
<path d="M18.4583 80.759C18.8573 80.619 18.9671 79.6941 19.4933 79.2879C19.8924 79.1478 20.0196 78.8816 20.1642 79.274C20.4361 79.4002 20.3089 79.6664 20.1817 79.9327C18.8922 81.9363 17.8746 84.0661 18.0716 86.4345C17.9444 86.7007 17.8172 86.9669 17.8172 86.9669C17.4182 87.107 17.2735 86.7146 17.4007 86.4483C16.9668 85.2711 17.3309 83.8137 17.5679 82.6226C17.8223 82.0902 18.0767 81.5577 18.4583 80.759Z" fill="#040404"/>
<path d="M27.2942 88.2925C26.5316 89.8902 25.2257 91.2354 25.2778 93.2118C25.1507 93.478 25.1507 93.478 24.752 93.6181C24.4804 93.4918 24.2088 93.3656 24.3359 93.0993C24.0295 91.6554 24.3935 90.1978 25.1735 89.2589C25.4277 88.7264 26.0807 88.0538 26.6065 87.6475C26.7336 87.3812 27.2595 86.9749 27.8027 87.2274C28.3459 87.4799 27.8201 87.8862 27.6929 88.1525C27.4213 88.0263 27.2942 88.2925 27.2942 88.2925Z" fill="#040404"/>
<path d="M41.3799 95.1389C41.1096 95.0123 40.966 94.6191 41.0926 94.3525C41.8692 93.4127 42.9161 92.5995 43.6927 91.6597C43.8193 91.3931 44.0896 91.5197 44.3598 91.6463C44.6301 91.7729 44.5035 92.0395 44.3769 92.3061C43.6002 93.2459 42.8236 94.1857 41.9033 94.7323C41.6501 95.2655 41.3799 95.1389 41.3799 95.1389Z" fill="#040404"/>
<path d="M61.8154 63.0576C61.8508 64.3737 61.3407 65.4379 60.9581 66.2361C60.3381 68.2245 59.4453 70.0869 58.5525 71.9493C58.425 72.2154 58.1699 72.7475 57.6243 72.4956C57.0787 72.2437 57.6066 71.8375 57.4613 71.4455C58.2089 69.1911 59.2292 67.0626 59.9767 64.8082C60.3594 64.01 60.8872 63.6038 61.8154 63.0576Z" fill="#040404"/>
<path d="M59.8782 75.244C60.5157 73.9137 60.8806 72.4573 61.6457 70.8609C62.0283 70.0627 62.2833 69.5306 63.2113 68.9843C63.3388 68.7182 63.7391 68.5781 64.0118 68.7041C64.2845 68.8301 64.157 69.0961 64.0295 69.3622C62.5914 70.9728 62.099 72.6952 61.4791 74.6836C61.2241 75.2158 60.969 75.7479 60.5688 75.888C60.1686 76.0281 60.1686 76.0281 59.8958 75.9022C59.2229 75.9163 59.3504 75.6502 59.8782 75.244Z" fill="#040404"/>
<path d="M54.9328 59.7131C54.5681 61.1697 53.8037 62.7665 53.4391 64.2231C53.3117 64.4893 53.3293 65.1476 52.657 65.1616C52.1122 64.9095 52.6394 64.5033 52.4944 64.1111C52.8238 61.3379 53.8431 59.2089 54.9898 56.8138C55.1172 56.5476 55.372 56.0154 55.7894 56.5336C56.3343 56.7857 56.2068 57.0518 55.952 57.5841C55.6972 58.1163 55.315 58.9147 54.9328 59.7131Z" fill="#040404"/>
<path d="M66.1321 78.5848C65.6217 79.6489 65.1112 80.713 64.6007 81.7771C64.4731 82.0431 64.2179 82.5752 63.6719 82.3233C63.1259 82.0715 63.6541 81.6654 63.7817 81.3994C64.4021 79.4113 65.15 77.1572 66.5893 75.5468C66.7169 75.2808 67.0998 74.4827 67.5182 75.0005C68.0642 75.2523 67.5359 75.6585 67.2807 76.1905C66.8978 76.9886 66.515 77.7867 66.1321 78.5848Z" fill="#040404"/>
<path d="M63.7872 78.7496C63.6601 79.0159 63.406 79.5485 62.8629 79.2959C62.5914 79.1696 62.8456 78.637 62.7011 78.2445C63.3191 76.2541 64.0642 73.9975 64.4108 71.8809C64.6649 71.3483 64.792 71.082 65.335 71.3346C65.8781 71.5871 65.3524 71.9934 65.4968 72.386C65.1503 74.5026 64.4052 76.7592 63.7872 78.7496Z" fill="#040404"/>
<path d="M57.5741 67.8684C57.3196 68.4008 57.1923 68.667 56.9202 68.5409C56.6481 68.4147 56.3761 68.2886 56.5034 68.0224C56.8502 65.9068 57.4691 63.9173 58.4873 61.7878C58.6146 61.5216 59.1412 61.1154 59.4133 61.2415C59.9574 61.4938 59.4308 61.9001 59.3035 62.1662C58.6846 64.1557 58.0657 66.1452 57.5741 67.8684Z" fill="#040404"/>
<path d="M46.3248 47.0155C45.8151 48.08 45.1781 49.4106 45.2133 50.7272C45.0859 50.9933 45.2309 51.3855 44.8311 51.5256C44.4312 51.6656 44.4136 51.0073 44.541 50.7412C44.6156 48.5002 45.5075 46.6374 46.6718 44.9006C46.7992 44.6345 47.199 44.4944 47.4715 44.6204C47.7439 44.7465 47.6165 45.0126 47.4891 45.2787C46.8344 45.9511 46.5796 46.4833 46.3248 47.0155Z" fill="#040404"/>
<path d="M55.8375 66.0409C55.7105 66.3072 55.5834 66.5735 55.1849 66.7135C54.9134 66.5872 54.769 66.1946 54.769 66.1946C55.1155 64.0779 55.4619 61.9612 56.3514 60.0971C56.4784 59.8308 56.6055 59.5645 56.8769 59.6907C57.4199 59.9433 57.1658 60.4759 57.0387 60.7422C56.5305 61.8075 56.2937 62.999 56.0569 64.1905C56.0743 64.8494 56.0916 65.5083 55.8375 66.0409Z" fill="#040404"/>
<path d="M50.3972 54.8824C50.0148 55.6807 49.6325 56.4791 48.8502 57.4175C48.7227 57.6836 48.5953 57.9497 48.3227 57.8236C48.0502 57.6976 48.1776 57.4315 48.3051 57.1654C48.7972 55.4428 49.8345 53.9722 50.1992 52.5156C50.3267 52.2495 50.5992 52.3755 50.7266 52.1094C50.9992 52.2354 51.1443 52.6276 51.0168 52.8937C51.0345 53.5519 50.3796 54.2242 50.3972 54.8824Z" fill="#040404"/>
<path d="M47.9116 49.1125C48.0389 48.8463 48.4384 48.7063 48.5658 48.4401L48.9653 48.3001C49.2375 48.4262 49.1102 48.6923 49.1102 48.6923C48.4911 50.6815 47.7271 52.2785 47.108 54.2677C46.9806 54.5339 46.9806 54.5339 46.5811 54.6739C46.3089 54.5478 46.0367 54.4217 46.164 54.1556C46.2738 53.231 46.6558 52.4325 46.6382 51.7741C47.1476 50.7095 47.8018 50.0371 47.9116 49.1125Z" fill="#040404"/>
<path d="M39.9773 45.2569C40.3414 43.7996 40.8502 42.7346 41.4861 41.4034C41.6133 41.1372 41.8677 40.6047 42.2667 40.4647C42.6657 40.3247 42.6657 40.3247 42.9375 40.4509C43.2093 40.5771 43.0822 40.8433 42.955 41.1095C42.319 42.4407 41.5559 44.0381 41.1918 45.4955C40.5384 46.168 40.2491 45.3831 39.9773 45.2569Z" fill="#040404"/>
<path d="M68.5383 81.7217C67.7565 82.6602 67.247 83.7247 66.7376 84.7893C66.6102 85.0554 66.3554 85.5877 66.0831 85.4616C65.5385 85.2095 65.6658 84.9434 65.9206 84.4111C66.4301 83.3465 67.067 82.0158 67.5764 80.9513C67.8312 80.419 68.0859 79.8867 68.6306 80.1389C69.3202 80.7832 68.7931 81.1894 68.5383 81.7217Z" fill="#040404"/>
<path d="M42.8445 44.0298C43.2261 43.2311 43.4805 42.6986 44.134 42.0261C44.533 41.8861 44.6602 41.6199 44.8048 42.0123C45.0767 42.1385 44.9495 42.4047 44.8223 42.671C43.9145 43.8759 43.0066 45.0809 43.1862 46.7906C43.059 47.0568 42.9318 47.3231 42.6599 47.1969C42.2609 47.3369 42.1163 46.9445 42.2434 46.6783C41.9542 45.8934 42.4629 44.8285 42.8445 44.0298Z" fill="#040404"/>
<path d="M52.4067 57.5006C52.0244 58.2988 51.7696 58.831 51.5147 59.3631C51.3873 59.6292 51.2598 59.8953 50.9871 59.7692C50.7143 59.643 50.8418 59.377 50.9692 59.1109C51.2062 57.9204 51.8433 56.5901 52.4805 55.2597C52.6079 54.9936 52.7354 54.7275 53.0081 54.8537C53.2809 54.9798 53.1534 55.2459 53.2988 55.6381C53.3167 56.2964 52.6616 56.9685 52.4067 57.5006Z" fill="#040404"/>
<path d="M65.41 52.3392C66.1744 50.7425 66.6664 49.0197 67.5582 47.1568C67.6856 46.8907 67.9404 46.3584 68.4852 46.6105C69.03 46.8626 68.7752 47.3949 68.6478 47.661C68.0108 48.9916 67.6462 50.4483 66.6094 51.919C66.3546 52.4513 65.9548 52.5914 65.41 52.3392Z" fill="#040404"/>
<path d="M69.1144 52.1473C68.8599 52.6798 68.4783 53.4784 68.2239 54.0109C68.0967 54.2771 67.9695 54.5433 67.4258 54.291C67.1539 54.1648 67.2811 53.8985 67.1365 53.5061C67.7725 52.175 68.1367 50.7177 68.7727 49.3866C68.8999 49.1203 69.1543 48.5879 69.698 48.8403C69.9699 48.9665 69.9873 49.6251 69.8601 49.8913C69.7504 50.8162 69.496 51.3486 69.1144 52.1473Z" fill="#040404"/>
<path d="M84.6241 79.0231C84.4968 79.2892 84.3695 79.5553 84.2422 79.8214C84.1148 80.0876 83.8602 80.6198 83.4427 80.1013C82.8978 79.8489 83.4249 79.4428 83.5522 79.1767C84.0614 78.1122 84.2983 76.9215 84.6802 76.1231C84.9348 75.5908 85.1894 75.0586 85.4619 75.1848C86.0067 75.4372 85.7521 75.9695 85.4975 76.5017C85.1155 77.3001 84.7336 78.0985 84.6241 79.0231Z" fill="#040404"/>
<path d="M65.1881 44.6671C64.8077 45.4665 64.4272 46.2658 63.776 46.9387C63.6492 47.2052 63.5223 47.4716 62.9807 47.2187C62.7099 47.0923 62.8367 46.8258 62.6927 46.4329C63.2 45.3671 63.3096 44.4413 63.8168 43.3755C64.0705 42.8426 64.4681 42.7026 64.7389 42.8291C65.2805 43.082 65.0269 43.6149 64.7733 44.1478C65.3149 44.4007 65.1881 44.6671 65.1881 44.6671Z" fill="#040404"/>
<path d="M82.8266 84.7317C83.4641 83.4015 84.1016 82.0713 84.7391 80.7411C84.8666 80.475 84.9941 80.209 85.2671 80.3351C85.5401 80.4612 85.6855 80.8533 85.558 81.1193C84.9205 82.4495 84.4105 83.5137 83.5 84.7179C83.6454 85.11 83.227 84.5918 82.8266 84.7317Z" fill="#040404"/>
<path d="M76.5912 69.8883C76.9551 68.4306 77.4461 66.7067 77.8101 65.249C77.9372 64.9828 78.0643 64.7165 78.463 64.5764C78.7346 64.7027 78.8791 65.0952 78.752 65.3615C78.388 66.8192 78.0241 68.2768 77.3886 69.6082C77.406 70.267 76.8628 70.0145 76.5912 69.8883Z" fill="#040404"/>
<path d="M76.017 65.6629C75.8899 65.9291 75.7628 66.1954 75.3641 66.3354C75.2369 66.6017 74.9654 66.4755 74.9654 66.4755C74.6938 66.3492 74.6938 66.3492 74.8209 66.0829C75.1848 64.6253 75.6932 63.5602 76.0572 62.1025C76.1843 61.8363 76.7101 61.43 76.9817 61.5562C77.5249 61.8087 76.999 62.215 76.8719 62.4813C76.6351 63.6727 76.5254 64.5978 76.017 65.6629Z" fill="#040404"/>
<path d="M81.0098 68.7725C81.5513 69.0254 81.6953 69.4183 81.8392 69.8112C81.476 71.27 80.9689 72.3358 80.8764 73.9211C80.7496 74.1875 80.8936 74.5805 80.2253 74.594C79.9545 74.4675 79.8105 74.0746 79.9373 73.8082C79.759 72.0965 80.5198 70.4977 81.0098 68.7725Z" fill="#040404"/>
<path d="M79.2705 66.2861C79.8121 66.539 80.227 67.0584 79.9733 67.5913C79.7369 68.7835 79.3565 69.5829 79.12 70.7751C78.9932 71.0416 78.8664 71.308 78.5956 71.1816C78.054 70.9287 78.4516 70.7887 78.3076 70.3958C78.544 69.2035 78.9073 67.7448 79.2705 66.2861Z" fill="#040404"/>
<path d="M102.01 85.8098C101.882 86.076 101.9 86.7343 101.355 86.4822C100.811 86.23 101.065 85.6977 101.193 85.4316C101.412 83.5825 102.177 81.9857 103.068 80.1227C103.195 79.8565 103.45 79.3242 103.995 79.5764C104.539 79.8285 104.012 80.2348 103.885 80.5009C103.393 82.2238 102.901 83.9468 102.01 85.8098Z" fill="#040404"/>
<path d="M99.1504 78.845C98.6243 79.2513 98.6591 80.5687 97.8439 80.1901C97.0286 79.8114 97.809 78.8727 98.0633 78.3402C98.572 77.2752 98.8089 76.084 99.0458 74.8928C99.173 74.6265 99.3001 74.3603 99.4273 74.094C99.5545 73.8278 99.9534 73.6877 100.225 73.814C100.497 73.9402 100.37 74.2064 100.243 74.4727C100.006 75.6639 99.9134 77.2475 99.1504 78.845Z" fill="#040404"/>
<path d="M85.7205 61.1975C85.8128 59.6139 86.8476 58.1426 87.2117 56.6852C87.3389 56.4189 87.6106 56.5452 87.6106 56.5452C87.8824 56.6714 88.1542 56.7976 88.027 57.0638C87.6629 58.5212 87.2988 59.9787 86.3912 61.1837C86.264 61.4499 85.9923 61.3237 85.7205 61.1975Z" fill="#040404"/>
</g>
<g opacity="0.1">
<path d="M33.2925 1145.4C39.6087 1143.28 44.7125 1145.06 48.0198 1151.34C50.9565 1148.85 54.0064 1146.11 57.908 1147.92C62.2974 1149.95 66.8963 1150.9 71.6085 1151.6C75.3625 1152.46 75.335 1155.71 75.778 1158.59C78.9309 1159.46 82.6677 1159.71 85.5939 1161.06C89.4956 1162.87 88.1698 1167.01 88.0289 1170.5C88.6299 1170.49 89.1176 1170.71 89.9625 1170.81C97.7143 1172.63 99.8711 1180.75 94.7466 1186.68C94.1627 1187.3 93.4655 1188.17 92.6377 1188.67C89.5878 1191.41 89.6221 1192.61 93.2971 1194.91C98.5657 1198.25 101.402 1204.91 100.128 1210.85C99.9015 1211.34 100.162 1212.05 100.406 1212.16C103.497 1215.08 102.512 1218.48 101.883 1221.75C101.254 1225.02 98.9189 1227.5 95.8346 1229.04C95.3641 1229.41 95.0069 1229.54 94.2925 1229.81C95.0823 1236.41 93.0868 1238.15 86.4649 1242.2C81.9689 1244.86 75.2097 1244.1 71.6309 1240.96C70.106 1242.33 68.2238 1243.83 66.8293 1245.55C64.6243 1248.39 60.5474 1248.87 57.1163 1246.69C56.6286 1246.46 56.2371 1245.39 55.636 1245.4C49.8865 1246.3 51.7963 1241.54 50.8655 1238.44C45.8476 1239.67 41.5716 1237.39 37.0689 1235.6C33.5416 1234.26 31.2679 1234.69 29.4372 1237.99C26.5864 1243.5 24.5805 1249.1 21.7297 1254.6C18.9923 1259.86 18.5457 1265.29 18.2296 1271.08C17.9135 1276.87 15.6913 1279.1 9.66365 1278.68C1.34512 1278.08 -5.48276 1274.92 -11.5344 1269.44L-11.7782 1269.32C-13.0147 1268.15 -15.6009 1266.06 -15.3742 1265.58C-14.2407 1263.13 -12.2624 1260.79 -10.2668 1259.04C-8.62852 1257.43 -5.75377 1256.98 -4.60316 1255.14C-2.64196 1252.19 -1.41233 1248.9 -0.670396 1245.39C0.586777 1238.85 1.2429 1232.33 2.27338 1226.28C0.209213 1225.61 -1.2539 1224.94 -2.83037 1224.5C-3.91912 1224.29 -5.00788 1224.08 -6.07948 1224.48C-12.0385 1226.46 -15.923 1225.25 -19.3266 1219.81C-19.5704 1219.7 -19.9276 1219.83 -20.1715 1219.72C-26.0171 1221.46 -29.1872 1219.98 -31.7459 1214.64C-32.0069 1213.93 -32.3984 1212.85 -32.0584 1212.12C-30.001 1208.33 -31.9071 1204.77 -32.855 1201.07C-33.5075 1199.28 -32.1302 1196.95 -31.8245 1195.02C-31.615 1193.93 -31.4055 1192.84 -31.6665 1192.12C-33.0849 1188.79 -31.9068 1183.7 -28.9701 1181.2C-26.6174 1179.33 -24.5086 1177.34 -22.7741 1174.88C-19.4184 1170.2 -14.9843 1169.59 -10.0283 1170.4C-12.2984 1162.52 -10.4849 1158.62 -3.22754 1155.75C-3.32014 1148.29 3.04078 1143.52 10.3049 1145.12C11.1498 1145.21 12.4481 1144.33 13.032 1143.71C17.9126 1137.66 24.1326 1136.4 30.0366 1140.92C31.3864 1141.84 32.0389 1143.63 33.2925 1145.4ZM74.0387 1232.58C73.4205 1231.99 73.1767 1231.88 72.9328 1231.77C72.1841 1230.82 71.4354 1229.88 70.6867 1228.94C71.8888 1228.91 73.3347 1228.98 74.4063 1228.59C75.8351 1228.07 77.7516 1227.77 78.205 1226.79C79.2423 1225.2 79.3041 1223.15 79.967 1221.08C80.0804 1220.84 79.2355 1220.74 79.105 1220.38C78.2429 1219.69 77.3808 1218.99 76.2749 1218.18C77.216 1217.43 78.1571 1216.68 79.2287 1216.28C82.1996 1214.99 82.4881 1212.45 82.7767 1209.92C83.0652 1207.38 81.7155 1206.46 79.4075 1205.68C76.7422 1205.04 76.5774 1203.48 78.8168 1201.85C79.2873 1201.47 79.8884 1201.45 80.1151 1200.97C80.7951 1199.5 82.1896 1197.77 82.0248 1196.21C81.8771 1195.25 79.6824 1194.23 78.3327 1193.31C78.0888 1193.2 77.3744 1193.46 77.2439 1193.1C76.5123 1192.76 75.5369 1192.31 75.5198 1191.71C75.5026 1191.11 76.1998 1190.24 76.6704 1189.87C77.1409 1189.49 77.9687 1188.99 78.6831 1188.72C82.4817 1186.93 82.5608 1185.48 79.9402 1182.18C78.4428 1180.3 76.8835 1180.47 75.0975 1181.12C71.2988 1182.92 71.2988 1182.92 69.8633 1178.99C69.2107 1177.2 68.0705 1175.19 66.7207 1174.27C63.7773 1172.31 59.8481 1173.75 57.3992 1176.47C55.5342 1178.57 53.4082 1179.96 51.1688 1181.59C50.6983 1181.97 49.8534 1181.87 49.3657 1181.65C48.9913 1181.18 48.8436 1180.22 48.8265 1179.62C49.5856 1176.7 50.5885 1173.9 51.2171 1170.63C52.1857 1166.63 49.809 1163.45 45.9417 1162.84C41.5867 1162.01 41.0818 1161.18 42.521 1156.8C42.8439 1155.47 43.1496 1153.53 42.5142 1152.35C40.9653 1148.66 37.2113 1147.81 33.9003 1149.83C33.0726 1150.34 31.6438 1150.86 30.7989 1150.77C30.3112 1150.54 29.5453 1149 29.6415 1148.15C30.0091 1144.17 27.1 1143.41 24.3043 1142.41C21.0208 1141.18 18.2937 1142.59 16.8031 1145.16C16.0097 1146.87 15.7211 1149.41 14.6495 1149.8C13.2207 1150.33 11.2528 1148.82 9.43244 1148.27C6.27952 1147.4 3.9268 1149.28 1.81793 1151.27C0.066265 1153.13 1.076 1154.78 2.44294 1156.31C2.81729 1156.78 2.85162 1157.98 2.51158 1158.71C2.04104 1159.09 0.969444 1159.48 0.237886 1159.14C-2.07013 1158.37 -3.48177 1159.49 -4.76289 1160.98C-7.79568 1164.32 -7.57936 1167.68 -5.67324 1171.24C-4.14147 1174.32 -5.29209 1176.16 -8.78505 1176.03C-11.0759 1175.85 -13.4973 1175.32 -15.7881 1175.15C-16.8769 1174.94 -18.6629 1175.6 -18.8896 1176.09C-19.2571 1180.07 -22.4719 1181.25 -24.938 1183.37C-27.1774 1185 -28.668 1187.58 -27.2839 1189.7C-25.2816 1192.41 -26.8066 1193.78 -28.0705 1195.87C-28.7678 1196.73 -29.2212 1197.71 -29.4307 1198.8C-29.283 1199.76 -28.8743 1201.43 -28.1428 1201.77C-23.8668 1204.05 -23.8668 1204.05 -26.0375 1208.09C-26.2642 1208.58 -26.8481 1209.2 -26.7176 1209.56C-25.9345 1211.7 -25.3782 1214.33 -23.8807 1216.21C-22.1394 1218.21 -20.7621 1215.88 -19.2372 1214.51C-17.8255 1213.39 -15.909 1213.09 -14.3669 1212.32C-14.2021 1213.88 -14.0372 1215.44 -13.759 1216.76C-13.3504 1218.43 -12.6978 1220.22 -11.9319 1221.76C-10.0326 1220.86 -8.00276 1220.32 -6.34728 1219.31C-5.16234 1218.67 -4.48227 1217.2 -3.42783 1216.21C-2.95729 1215.83 -2.24289 1215.57 -1.5285 1215.31C-1.26748 1216.03 -0.762612 1216.85 -0.858795 1217.7C-0.824471 1218.9 -1.034 1219.99 -0.999676 1221.2C2.06744 1219.06 3.31424 1216.37 0.954731 1213.79C-2.1535 1210.27 -5.60176 1207.48 -8.93668 1204.45C-10.0426 1203.64 -11.3924 1202.72 -13.2745 1204.22C-13.8584 1204.84 -16.0531 1203.82 -17.159 1203.01C-17.6467 1202.78 -17.8287 1200.62 -17.8287 1200.62C-15.7027 1199.23 -15.0741 1195.96 -11.5812 1196.1C-9.53415 1196.16 -8.12252 1195.03 -9.99432 1192.68C-11.2479 1190.91 -10.5507 1190.05 -8.61701 1190.35C-6.9272 1190.54 -5.2374 1190.73 -3.05988 1191.15C-2.52748 1188.73 -1.99507 1186.3 -1.46267 1183.88C-1.21882 1183.99 -0.861624 1183.86 -0.617771 1183.97C-0.339594 1185.29 -0.305268 1186.49 0.0862552 1187.57C0.364432 1188.88 0.886459 1190.31 1.16464 1191.63C2.33242 1190.39 3.50019 1189.15 4.53746 1187.55C4.65081 1187.31 4.8775 1186.82 5.10419 1186.33C5.67092 1185.11 6.36815 1184.25 7.17873 1183.14C6.80437 1182.67 5.94231 1181.97 4.83639 1181.16C5.77748 1180.41 6.47471 1179.55 7.4158 1178.8C8.27786 1179.5 8.78273 1180.32 9.6448 1181.02C14.2884 1179.32 15.2638 1179.77 14.6695 1184.24C17.8224 1185.11 18.5644 1181.6 21.1953 1181.04C20.7591 1182.62 20.1923 1183.84 19.7561 1185.42C19.1104 1188.08 18.3513 1191 18.3066 1193.65C18.3237 1194.25 20.2917 1195.76 20.7623 1195.38C23.6198 1194.33 26.2164 1192.57 29.3007 1191.03C28.1776 1189.62 27.6556 1188.19 26.5497 1187.38C24.4512 1185.52 25.6018 1183.68 26.7524 1181.84C26.9791 1181.35 27.9373 1181.2 28.5384 1181.18C28.7822 1181.29 29.4005 1181.88 29.4176 1182.48C29.6786 1183.19 29.3386 1183.93 29.3558 1184.53C33.1544 1182.73 34.7481 1183.77 34.9987 1188.34C40.9749 1186.95 40.0578 1192.76 42.0601 1195.47C42.1563 1194.63 42.0257 1194.27 41.8952 1193.91C41.5999 1191.99 42.0189 1189.81 44.4232 1189.74C46.5835 1189.56 46.5216 1191.61 46.6865 1193.17C46.999 1195.69 47.9125 1198.19 44.9588 1200.08C44.6016 1200.21 44.6187 1200.81 44.7492 1201.17C45.2884 1203.2 45.4704 1205.37 46.1401 1207.75C47.2117 1207.36 47.9261 1207.1 48.8844 1206.95C49.4854 1206.93 50.217 1207.27 50.7047 1207.5C49.475 1210.79 50.9553 1212.07 53.9777 1212.58C53.9777 1212.58 54.2216 1212.69 54.1082 1212.94C55.1008 1213.99 55.4029 1220.36 54.8362 1221.58C54.4962 1222.32 53.9123 1222.94 53.3284 1223.56C54.4172 1223.76 55.2621 1223.86 56.3508 1224.07C56.5947 1224.18 57.0824 1224.41 57.8139 1224.75C56.8728 1225.5 56.0451 1226 55.7051 1226.74C55.2517 1227.71 55.1727 1229.16 55.7909 1229.75C58.6553 1233.15 58.6553 1233.15 55.9797 1236.36C55.753 1236.85 55.5263 1237.34 55.4129 1237.58C56.536 1239 57.5286 1240.05 58.6517 1241.46C59.0089 1241.33 59.6099 1241.31 60.0805 1240.94C62.3198 1239.31 64.6726 1237.43 67.8426 1238.9C68.5742 1239.24 70.003 1238.72 70.7002 1237.85C71.267 1236.63 72.5309 1234.55 74.0387 1232.58ZM54.5441 1232.43C51.8789 1231.79 49.5708 1231.01 47.5238 1230.95C43.787 1230.7 40.6341 1229.83 37.9174 1227.39C34.2081 1223.88 34.4967 1221.35 39.1231 1219.04C41.493 1217.77 44.1067 1216.6 46.5899 1215.09C45.381 1210.67 42.6883 1213.28 40.4146 1213.7C35.9805 1214.32 31.5636 1215.53 27.2429 1215.9C23.2794 1216.14 21.8953 1214.01 22.7506 1210.25C23.7021 1205.65 26.1167 1201.73 29.6371 1198.61C31.5193 1197.11 33.4015 1195.61 35.2837 1194.11C35.1532 1193.75 35.2665 1193.51 35.136 1193.15C33.5767 1193.32 31.8869 1193.12 30.702 1193.76C27.9749 1195.17 25.3783 1196.93 22.6512 1198.34C19.5669 1199.87 17.0151 1198.98 16.1977 1195.64C15.528 1193.25 15.9299 1190.47 15.7307 1187.7C13.1789 1186.82 13.0037 1189.11 12.4541 1190.93C11.616 1195.29 10.9084 1200.01 10.0703 1204.37C9.97408 1205.21 9.03299 1205.97 8.57961 1206.94C7.6042 1206.49 6.38493 1205.92 5.88007 1205.1C3.48624 1201.31 1.33626 1197.64 -0.813722 1193.97C-2.37302 1194.14 -3.93232 1194.31 -5.49162 1194.47C-6.51173 1196.67 -7.53184 1198.87 -8.66529 1201.31C-7.68988 1201.77 -6.58396 1202.58 -5.60855 1203.03C0.0343884 1206.83 5.09344 1211.26 5.90044 1218.46C6.11675 1221.83 5.73202 1225.21 5.59114 1228.71C4.9865 1237.03 3.89416 1245.13 0.754818 1253.17C-0.361475 1256.22 -2.09598 1258.68 -5.06692 1259.97C-6.25186 1260.61 -7.43679 1261.25 -8.86559 1261.77C-8.13403 1262.11 -7.40247 1262.45 -6.93193 1262.07C-4.07435 1261.03 -1.52247 1261.91 1.04656 1263.4C3.6156 1264.89 6.42849 1266.49 9.33756 1267.25C12.2466 1268.01 14.5718 1269.38 15.8597 1272.36C16.0693 1271.27 16.1654 1270.42 16.2616 1269.57C16.9864 1265.46 17.4673 1261.23 18.4359 1257.23C18.855 1255.05 20.119 1252.96 21.0257 1251.01C22.4821 1247.23 23.9384 1243.46 25.6386 1239.79C29.2656 1231.98 33.5348 1229.8 41.4686 1233.78C43.1756 1234.58 45.1264 1235.48 46.9296 1235.43C48.8804 1236.33 52.0162 1236.6 54.5441 1232.43ZM84.065 1191.82C85.1366 1191.42 86.452 1191.14 87.3931 1190.39C88.8047 1189.27 89.842 1187.67 90.8793 1186.07C92.0299 1184.23 93.5377 1182.26 94.0701 1179.84C94.8121 1176.32 93.3146 1174.44 89.935 1174.06C88.2452 1173.87 86.3287 1174.17 83.9245 1174.24C83.7597 1172.68 83.5948 1171.12 83.43 1169.56C82.7707 1163.32 79.7139 1161.6 74.5036 1164.52C72.9615 1165.29 72.2471 1165.55 71.7079 1163.52C71.2992 1161.85 70.9867 1159.33 69.8808 1158.52C67.0507 1156.32 64.0902 1153.75 59.3504 1156.3C60.4324 1152.06 57.7843 1152.01 55.4935 1151.84C53.2026 1151.67 50.5717 1152.23 49.8126 1155.14C49.4898 1156.48 49.7679 1157.79 50.1766 1159.47C49.5756 1159.48 48.3735 1159.52 46.9275 1159.44C49.8537 1160.8 53.4772 1161.29 54.8613 1163.42C56.2454 1165.55 55.7473 1169.17 55.9636 1172.54C59.1098 1168.95 62.9771 1169.56 66.7311 1170.41C68.3075 1170.85 70.2584 1171.75 71.1376 1173.05C73.0094 1175.41 74.3935 1177.53 77.8864 1177.67C79.0886 1177.63 80.1945 1178.44 81.3004 1179.25C84.8792 1182.4 85.2431 1186.72 84.065 1191.82ZM74.1142 1239.44C79.1836 1240.01 82.8861 1239.06 86.4581 1237.75C90.3873 1236.3 90.3701 1235.7 88.1068 1232.28C86.8532 1230.51 87.8561 1227.71 89.8688 1226.57C91.7681 1225.67 93.7808 1224.52 95.4191 1222.91C98.9396 1219.79 98.792 1218.83 96.0409 1215.18C94.6568 1213.06 91.9401 1210.61 95.7216 1208.21C96.436 1207.95 96.6112 1205.65 96.2197 1204.58C95.1757 1201.72 93.4172 1199.13 89.7937 1198.63C86.0398 1197.78 85.394 1200.45 84.1301 1202.53C88.4404 1206.02 88.8559 1212.15 84.6381 1216.12C84.0542 1216.74 83.1303 1218.1 83.5047 1218.57C84.7926 1221.54 83.4153 1223.87 82.1513 1225.95C79.7539 1230.48 77.226 1234.65 74.1142 1239.44ZM24.7358 1212.36C31.3988 1213.97 36.8701 1211.76 42.5853 1209.67C39.137 1206.88 40.9677 1203.57 41.483 1200.55C40.377 1199.74 39.515 1199.04 38.4091 1198.23C37.0593 1197.31 35.7267 1196.98 33.9578 1198.24C29.723 1201.62 26.3673 1206.29 24.7358 1212.36ZM-10.5486 1266.03C-4.0883 1273.19 3.58449 1276.45 12.7136 1275.94C12.0096 1272.35 9.79774 1270.73 6.28761 1269.99C4.1101 1269.57 1.91543 1268.55 0.191294 1267.16C-3.14362 1264.13 -6.50608 1264.35 -10.5486 1266.03ZM38.1545 1223.04C41.1665 1227.41 44.9205 1228.26 49.2412 1227.89C49.2515 1224.04 49.2619 1220.18 49.5162 1216.44C45.9613 1218.36 42.1798 1220.76 38.1545 1223.04ZM6.52582 1202.43C6.88301 1202.3 7.12687 1202.41 7.48407 1202.28C8.07833 1197.8 8.91644 1193.44 9.51071 1188.97C9.023 1188.75 8.77915 1188.63 8.29144 1188.41C6.42643 1190.51 4.44807 1192.86 2.58306 1194.96C3.98432 1197.69 5.25507 1200.06 6.52582 1202.43Z" fill="#020202"/>
</g>
<g opacity="0.1">
<path d="M1333.39 356.638C1331.46 356.638 1329.81 356.362 1328.15 356.086C1327.05 355.81 1326.22 355.259 1325.67 354.707C1324.84 353.88 1324.84 352.777 1325.4 351.398C1326.5 349.192 1327.6 347.262 1328.98 345.331C1327.33 345.055 1326.22 344.78 1324.84 344.504C1323.74 344.228 1323.19 343.401 1323.47 342.298C1324.02 340.092 1324.29 337.885 1325.4 335.955C1325.95 335.128 1326.22 334.301 1326.78 333.473C1327.33 332.37 1327.88 331.267 1328.98 330.716C1329.81 330.164 1329.81 329.888 1328.98 329.337C1327.88 328.785 1327.05 327.958 1325.95 327.406C1325.12 326.855 1325.12 326.303 1325.4 325.476C1325.95 324.373 1326.22 322.994 1327.33 321.615C1326.22 321.615 1325.4 321.615 1324.57 321.34C1323.19 320.788 1322.64 320.512 1322.64 319.133C1322.91 316.1 1322.91 312.791 1324.02 309.757C1324.84 307.827 1325.67 305.621 1326.5 303.691C1327.6 301.76 1329.26 300.657 1330.91 299.278C1333.67 296.521 1337.25 295.142 1341.11 294.59C1343.05 294.039 1345.25 294.039 1347.46 294.59C1350.49 295.142 1353.8 295.418 1356.83 296.245C1357.94 296.521 1359.04 296.796 1360.42 297.072C1360.97 297.348 1361.25 296.796 1361.52 296.521C1362.9 293.763 1365.66 291.557 1367.59 289.075C1368.14 288.248 1368.97 287.42 1369.24 286.593C1369.79 285.214 1370.9 284.387 1371.73 283.284C1372.28 282.732 1372.83 282.181 1373.38 281.353C1373.93 280.526 1374.48 279.975 1375.31 279.423C1376.69 278.044 1378.62 277.769 1380 276.114C1382.2 273.632 1385.51 272.529 1388 270.599C1392.13 267.841 1396.54 265.083 1400.68 262.05C1402.61 260.671 1404.82 259.016 1406.75 257.638C1409.78 255.431 1413.37 254.053 1416.95 252.95C1420.26 252.122 1423.29 251.295 1426.6 250.743C1433.77 249.916 1440.39 247.434 1447.28 246.331C1451.15 245.78 1455.01 245.228 1458.59 244.952C1460.8 244.677 1463 244.125 1465.49 243.574C1466.31 243.298 1465.76 242.47 1466.31 242.195C1466.86 241.919 1467.14 243.022 1467.69 242.47C1468.24 241.643 1469.07 241.092 1469.62 240.264C1470.73 239.161 1471.55 237.782 1472.93 236.955C1474.59 236.128 1475.96 234.749 1477.07 233.37C1477.62 232.543 1478.45 231.716 1479.27 231.164C1482.58 228.958 1484.51 225.649 1486.44 222.34C1487.82 220.133 1490.03 218.755 1491.96 216.824C1492.23 216.824 1492.51 216.824 1492.79 216.824C1496.1 218.203 1499.68 218.479 1502.99 219.858C1504.64 220.685 1505.75 221.512 1506.85 223.167C1507.95 224.821 1509.33 226.2 1510.71 227.579C1513.19 229.785 1515.12 232.267 1516.78 235.025C1517.33 236.128 1518.16 236.955 1518.98 238.058C1520.09 239.989 1520.36 242.195 1520.64 244.125C1520.64 244.952 1520.09 245.78 1519.81 246.331C1519.54 247.158 1518.71 247.71 1518.43 248.537C1518.43 248.813 1518.16 248.813 1517.88 248.813C1515.95 248.813 1514.85 249.916 1513.74 251.295C1513.47 251.571 1513.47 251.571 1513.19 251.847C1509.88 253.501 1507.4 256.259 1504.37 258.465C1499.4 262.05 1494.99 266.462 1490.03 270.323C1487.27 272.529 1484.79 274.735 1482.03 276.941C1480.93 277.769 1480.1 279.423 1479.27 280.526C1477.07 284.111 1474.59 287.42 1471.83 290.178C1469.9 292.108 1467.42 293.763 1465.21 295.418C1461.9 297.624 1458.32 299.002 1454.45 299.83C1452.52 300.381 1450.87 301.209 1449.22 302.036C1446.18 303.415 1442.87 303.691 1439.56 304.518C1434.05 305.897 1428.53 307.827 1422.74 309.482C1420.81 310.033 1418.88 311.136 1417.23 312.239C1416.67 312.515 1415.85 312.791 1415.3 313.067C1412.54 313.894 1410.33 315.824 1408.13 317.479C1406.2 318.858 1404.27 320.236 1402.34 321.615C1402.06 321.891 1401.78 322.167 1401.51 322.443C1400.68 322.994 1400.13 323.546 1399.03 323.821C1397.65 324.373 1395.99 324.924 1394.89 325.752C1393.79 326.303 1392.96 326.855 1391.86 327.406C1391.58 327.406 1391.3 327.406 1391.3 327.682C1387.72 330.44 1383.03 331.819 1379.45 334.576C1378.34 335.404 1376.96 335.679 1375.86 336.507C1375.31 337.058 1374.76 337.61 1374.76 338.437C1374.76 342.574 1373.66 346.158 1372 349.743C1370.9 352.225 1369.79 354.707 1367.86 356.638C1365.93 358.844 1364 360.774 1361.25 361.877C1359.32 362.704 1357.39 364.083 1355.18 364.635C1350.77 365.738 1346.35 366.289 1341.94 365.738C1339.74 365.462 1337.81 365.186 1335.88 364.359C1334.5 363.807 1333.67 362.98 1332.57 362.153C1332.01 361.601 1332.29 360.774 1332.29 360.223C1332.57 359.119 1333.12 358.016 1333.39 356.638ZM1427.71 306.448C1427.71 306.448 1427.43 306.448 1427.43 306.724L1427.71 306.448C1430.46 306.172 1432.95 304.794 1435.43 304.242C1439.01 303.415 1442.87 302.587 1446.46 301.76C1447.56 301.484 1448.39 301.209 1449.22 300.381C1446.73 300.657 1444.25 301.209 1441.77 301.76C1437.08 302.863 1432.39 304.518 1427.71 305.897C1427.71 305.897 1427.71 306.172 1427.71 306.448ZM1392.96 307C1392.96 307 1393.23 307 1392.96 307C1392.96 306.724 1392.96 306.724 1392.96 307C1389.65 308.379 1386.62 310.585 1383.58 312.239C1381.93 313.067 1380.27 314.17 1378.62 314.997C1375.31 316.652 1372.55 318.858 1369.24 320.512C1367.31 321.34 1365.93 322.994 1363.73 323.546C1363.18 323.821 1362.9 323.546 1362.35 323.27C1360.69 322.443 1359.04 321.34 1357.39 321.064C1355.18 320.788 1353.25 320.512 1351.04 320.788C1347.73 321.064 1344.7 321.615 1341.67 322.994C1337.53 324.924 1333.95 327.682 1330.64 330.991C1329.81 331.543 1328.98 332.094 1328.43 332.922C1326.78 335.679 1325.4 338.713 1324.84 342.022C1324.84 342.574 1324.84 342.849 1325.4 342.849C1326.78 343.401 1328.15 343.677 1329.81 343.677C1330.91 343.677 1331.46 344.504 1330.64 345.331C1329.26 347.537 1327.6 349.468 1326.78 351.95C1326.22 353.328 1326.22 353.88 1327.6 354.431C1328.15 354.707 1328.71 354.983 1329.26 354.983C1330.91 355.259 1332.57 355.259 1334.22 355.259C1335.32 355.259 1335.6 355.81 1335.05 356.638C1334.22 357.741 1334.22 359.119 1333.67 360.498C1333.39 360.774 1333.67 361.326 1333.95 361.601C1334.77 362.153 1335.6 362.704 1336.43 362.98C1337.53 363.532 1338.91 363.532 1340.01 363.807C1343.87 364.635 1347.46 364.359 1351.32 363.807C1355.18 363.256 1358.21 361.326 1361.52 359.671C1362.35 359.119 1363.18 358.844 1364 358.016C1366.49 355.535 1368.69 352.777 1370.07 349.468C1371.73 345.883 1373.1 342.022 1373.1 338.161C1373.1 337.61 1373.1 337.334 1372.55 337.058C1372.28 337.058 1372 336.782 1372 336.507C1372 335.955 1372.28 335.955 1372.55 335.679C1373.38 335.404 1374.21 335.128 1374.76 334.852C1377.52 333.197 1380 331.543 1383.03 330.164C1386.06 328.509 1389.1 326.855 1392.13 325.2C1394.89 323.821 1397.37 322.443 1399.85 320.788C1401.23 319.961 1402.61 318.582 1404.54 317.479C1403.99 317.479 1403.71 317.479 1403.71 317.479C1399.85 318.858 1395.99 318.582 1392.13 318.306C1390.2 318.03 1388.82 316.652 1388.82 314.721C1388.82 313.342 1389.37 311.963 1390.2 310.86C1391.3 309.482 1392.41 308.379 1392.96 307ZM1509.88 251.847V252.122C1509.88 252.122 1510.16 252.122 1509.88 251.847C1510.44 251.847 1510.99 251.847 1510.71 251.295C1510.16 250.192 1510.71 250.468 1511.26 250.468C1512.09 250.468 1512.64 250.468 1512.09 249.365V249.089C1512.92 247.986 1512.92 246.883 1512.92 245.78C1513.19 244.677 1513.19 243.849 1513.47 242.746C1513.47 242.195 1513.74 241.643 1514.3 241.919C1515.12 241.919 1514.85 242.47 1514.85 243.022C1514.85 243.574 1514.85 243.849 1514.57 244.401C1514.3 245.504 1514.02 246.883 1514.02 248.262C1514.85 247.434 1515.95 247.158 1515.95 246.055C1515.95 244.677 1516.5 243.574 1516.5 242.195C1516.5 241.643 1516.78 241.092 1517.61 241.367C1518.71 241.367 1518.43 241.919 1518.43 242.195C1518.16 243.298 1518.16 244.401 1517.88 245.504C1519.54 244.952 1519.54 244.125 1519.26 242.195C1518.71 239.161 1517.05 236.955 1515.4 234.749C1514.57 233.646 1514.02 232.267 1513.19 231.44C1510.99 229.234 1508.5 227.028 1506.57 224.546C1504.92 222.615 1503.27 221.236 1501.06 220.685C1498.85 219.858 1496.37 219.582 1494.17 218.755C1493.06 218.479 1492.51 218.755 1492.23 219.582C1491.96 220.409 1491.68 220.685 1491.13 220.961C1490.03 221.512 1489.48 222.34 1488.65 223.443C1486.72 226.476 1484.51 229.509 1482.31 232.267C1480.38 234.473 1478.17 236.404 1475.96 238.058C1474.31 239.161 1472.66 240.54 1471.28 241.919L1471 242.195C1470.45 243.574 1469.35 244.125 1468.24 244.952C1466.59 246.055 1464.66 246.055 1463 246.331C1459.14 247.158 1455.28 247.986 1451.42 248.262C1447.84 248.537 1444.53 249.089 1441.22 250.192C1439.01 251.019 1436.53 251.571 1434.32 251.571C1432.12 251.571 1430.19 252.122 1427.98 252.398C1426.6 252.674 1425.22 252.95 1423.84 253.225C1421.64 253.501 1419.16 253.777 1417.23 255.156C1415.02 256.535 1412.54 256.81 1410.33 258.741C1408.68 260.119 1406.75 261.498 1404.54 262.601C1403.99 262.877 1403.71 263.153 1403.16 263.429C1402.34 264.532 1401.23 265.083 1399.85 265.635C1398.2 266.186 1397.1 267.289 1395.99 268.392C1395.72 268.668 1395.72 268.944 1395.17 268.944C1392.13 270.599 1389.65 272.805 1386.62 274.184C1383.86 275.562 1381.93 277.769 1379.17 279.423C1377.52 280.25 1376.69 281.905 1375.31 283.008C1374.48 283.56 1373.93 284.111 1373.66 284.938C1372.55 287.42 1370.35 289.075 1368.42 291.005C1367.04 292.66 1365.11 294.314 1363.73 296.521C1371.73 294.314 1379.72 293.211 1386.06 287.972C1386.06 287.972 1385.79 287.696 1385.51 287.696C1385.24 287.42 1384.96 287.145 1385.24 286.593C1385.51 286.317 1385.79 286.317 1386.34 286.593C1386.62 286.593 1386.89 286.869 1386.89 286.869C1387.72 287.972 1389.1 287.696 1389.93 287.145C1393.79 285.214 1398.2 284.111 1402.06 281.905C1403.16 281.353 1403.44 281.078 1402.34 280.25C1401.78 279.975 1400.96 279.699 1401.51 278.872C1402.06 278.044 1402.61 278.872 1403.44 278.872C1403.71 278.872 1403.71 278.872 1403.99 279.147C1404.82 279.699 1405.64 279.699 1406.47 279.699C1408.68 279.699 1410.88 278.872 1412.81 277.769C1415.3 276.665 1417.78 275.287 1420.54 275.011C1419.71 274.735 1419.43 273.908 1418.61 273.632C1418.33 273.632 1417.78 273.356 1417.78 272.805C1418.05 272.253 1418.61 272.253 1419.16 272.529C1421.64 273.632 1423.57 275.287 1424.67 277.769C1424.95 278.596 1424.95 279.147 1424.95 279.975C1424.4 281.629 1423.84 283.56 1423.02 285.214C1422.74 285.766 1422.47 286.041 1422.19 286.317C1420.26 287.972 1417.78 288.799 1416.12 291.005C1416.12 291.281 1415.85 291.281 1415.57 291.281C1411.99 293.763 1408.95 296.796 1405.37 299.002C1403.44 300.106 1401.78 301.76 1399.85 302.863C1397.92 303.966 1396.54 305.345 1395.44 307C1395.44 307 1395.17 307.275 1395.44 307.275C1395.44 307.551 1395.72 307.275 1395.72 307.275C1397.1 305.897 1398.75 305.621 1400.68 305.069C1401.23 304.794 1401.78 304.794 1402.34 305.069C1404.82 306.448 1406.75 308.379 1407.3 311.412C1407.57 312.239 1407.3 312.791 1406.47 313.342C1405.92 313.618 1405.64 313.894 1405.09 314.17C1402.89 315.548 1400.68 316.652 1398.2 317.479C1400.68 317.479 1403.16 316.652 1405.64 316.1C1408.95 315.273 1411.99 313.067 1415.3 311.963C1416.4 311.412 1417.78 310.86 1418.88 310.033C1422.19 308.103 1424.95 305.621 1429.08 304.794C1432.12 304.242 1435.15 302.863 1438.18 302.036C1442.05 300.933 1445.91 299.83 1450.04 299.278C1453.08 299.002 1455.83 299.002 1458.87 297.899C1463.83 295.969 1467.97 293.211 1471.83 289.626C1475.69 286.041 1478.17 281.629 1481.2 277.217C1482.03 276.114 1482.31 274.184 1484.24 274.459L1484.51 274.184C1485.06 271.977 1485.34 269.771 1486.17 267.565C1486.17 267.289 1485.89 266.738 1486.44 266.738C1487 266.738 1487 267.289 1487 267.565C1487 269.22 1486.44 270.874 1486.17 272.529C1487.27 271.702 1488.1 271.15 1488.37 269.496C1488.37 267.289 1488.93 265.083 1488.93 262.877C1488.93 262.326 1489.2 262.05 1489.75 262.05C1490.3 262.05 1490.58 262.601 1490.58 263.153C1490.3 265.359 1490.3 267.565 1489.75 269.771V270.047H1490.03C1490.86 269.22 1492.23 268.668 1492.23 267.289C1492.51 265.083 1492.79 262.601 1493.34 260.395C1493.34 259.844 1493.61 259.568 1493.89 259.292C1494.17 259.292 1494.44 259.292 1494.72 259.568C1494.99 260.119 1494.99 260.395 1494.72 260.947C1494.17 262.877 1493.89 264.808 1493.61 266.738C1493.61 266.738 1493.89 266.738 1493.89 267.014C1494.72 266.462 1495.54 265.911 1495.82 264.532C1496.1 261.774 1496.65 259.016 1497.47 256.259C1497.47 255.707 1497.75 255.156 1498.3 255.431C1498.85 255.431 1498.85 255.983 1498.58 256.535C1498.3 256.81 1498.3 257.362 1498.3 257.638C1498.03 259.568 1497.47 261.774 1497.2 263.98C1498.3 263.429 1499.13 262.601 1499.68 261.774C1499.96 261.498 1500.51 261.223 1500.51 260.395C1500.78 259.292 1500.78 258.189 1501.06 257.086C1501.34 255.431 1501.61 253.501 1501.89 251.847C1501.89 251.295 1502.16 250.743 1502.71 251.019C1503.27 251.295 1503.27 251.847 1503.27 252.122C1502.44 254.328 1502.44 256.81 1501.89 259.292C1501.61 259.568 1501.61 259.568 1501.89 259.844C1501.89 260.119 1502.16 259.844 1502.16 259.568C1502.71 259.292 1503.27 258.741 1503.82 258.465C1504.92 257.913 1505.47 256.81 1505.47 255.707C1505.47 254.604 1505.75 253.225 1506.02 252.122C1506.3 251.295 1506.57 250.743 1506.3 249.916C1506.3 249.089 1506.3 248.537 1506.85 247.986C1507.13 247.71 1507.4 247.71 1507.4 247.986C1507.95 248.537 1507.95 249.365 1507.68 249.916C1507.4 251.847 1507.13 253.501 1506.57 255.431C1506.57 255.707 1506.3 255.707 1506.57 255.983H1506.85C1507.4 255.431 1507.95 255.156 1508.78 254.604C1509.06 254.328 1509.33 254.328 1509.33 253.777C1509.61 251.295 1509.88 248.537 1510.44 246.055C1510.44 245.504 1510.71 244.952 1511.26 244.952C1511.81 244.952 1511.81 245.78 1511.81 246.331C1510.99 247.71 1510.44 249.64 1509.88 251.847ZM1344.15 295.693C1341.11 295.418 1338.36 296.245 1335.88 297.624C1333.12 299.002 1330.91 301.209 1328.71 303.139L1328.43 303.415C1325.95 307.551 1324.29 311.963 1324.29 316.927C1324.29 319.961 1324.29 319.961 1327.05 319.961C1328.71 319.961 1329.26 321.064 1328.43 322.443C1327.88 323.27 1327.6 324.373 1327.05 325.2C1326.78 325.752 1327.05 325.752 1327.33 326.303C1328.15 327.406 1329.81 327.682 1330.91 328.509C1331.19 328.785 1331.46 328.509 1331.46 328.234C1333.95 325.2 1337.53 323.27 1341.11 321.615C1346.91 319.133 1352.7 318.582 1359.04 319.685C1360.14 319.961 1361.8 319.685 1362.62 320.512C1363.73 321.34 1363.73 320.788 1364.28 319.961C1364.56 319.685 1364.56 319.409 1364.56 318.858C1364.56 316.652 1366.21 315.548 1367.86 314.721C1371.17 313.067 1374.48 311.688 1377.79 310.309C1380.83 309.206 1384.13 308.379 1386.89 306.724C1388 305.897 1388.82 305.069 1390.2 304.518C1392.96 303.415 1395.44 302.312 1397.92 300.933C1402.06 298.727 1405.92 295.969 1409.78 293.211C1411.44 291.833 1412.54 289.902 1414.47 289.075C1416.12 288.248 1417.23 286.869 1418.88 286.041C1420.26 285.49 1421.64 284.387 1422.19 282.732C1422.47 281.905 1423.02 280.802 1423.29 279.975C1423.84 278.596 1423.29 276.39 1422.19 275.287C1422.19 275.287 1421.91 275.011 1421.64 275.011C1419.71 275.287 1417.78 275.838 1416.4 276.941C1414.47 278.32 1412.54 279.423 1410.33 280.526C1406.75 282.457 1402.89 283.835 1399.03 284.938C1395.72 286.041 1392.68 287.696 1389.37 288.523C1386.89 289.351 1384.41 290.454 1382.2 291.557C1380 292.66 1378.07 293.487 1375.86 294.039C1372.28 294.866 1368.97 295.969 1365.38 297.072C1364.56 297.348 1364 297.624 1363.18 297.899C1361.8 299.002 1360.69 299.002 1359.32 297.624L1359.04 297.348C1354.08 297.072 1349.11 296.245 1344.15 295.693ZM1393.51 317.203C1394.34 317.755 1394.34 316.652 1394.89 316.376C1398.47 315.548 1401.51 313.894 1404.54 311.963C1404.82 311.688 1405.09 311.412 1404.82 310.86C1404.54 308.93 1403.16 307.551 1401.78 306.448C1400.96 305.621 1399.58 305.345 1398.75 305.897C1397.37 307 1395.99 308.103 1394.34 309.206C1392.96 310.309 1392.13 311.963 1390.75 312.791C1390.2 313.342 1389.93 314.445 1390.2 315.273C1390.48 316.1 1391.03 316.652 1391.58 316.652C1392.13 316.927 1392.68 316.927 1393.51 317.203ZM1366.76 319.685C1368.97 317.479 1371.45 316.652 1373.66 315.273C1373.38 315.273 1373.38 315.273 1373.1 315.273C1370.9 315.824 1369.24 317.479 1367.04 318.03C1366.49 318.306 1366.76 318.858 1366.76 319.685ZM1378.62 312.515C1377.52 312.791 1376.69 313.067 1376.14 314.17C1376.96 313.618 1377.79 313.342 1378.62 312.515ZM1492.51 266.738C1492.51 266.462 1492.51 266.462 1492.51 266.738C1492.51 266.462 1492.51 266.738 1492.51 266.738ZM1374.21 315.273C1374.21 315.273 1374.21 314.997 1374.21 315.273C1373.93 314.997 1373.93 315.273 1374.21 315.273C1373.93 315.273 1373.93 315.273 1374.21 315.273Z" fill="#0A0A0A"/>
<path d="M1437.33 37.2924C1437.33 37.5681 1437.06 37.5681 1437.06 37.5681C1437.06 37.2924 1437.06 37.2924 1437.06 37.0166C1437.33 37.0166 1437.33 37.0166 1437.33 37.2924Z" fill="#FDFDFD"/>
<path d="M1424.93 47.7719C1424.65 47.7719 1424.65 48.0476 1424.93 47.7719C1424.65 47.7719 1424.65 47.7719 1424.65 47.4961C1424.65 47.7719 1424.65 47.7719 1424.93 47.7719Z" fill="#FDFDFD"/>
<path d="M1331.17 84.7246C1331.17 84.7246 1330.89 85.0004 1330.89 84.7246C1330.89 84.7246 1330.89 84.7246 1331.17 84.7246Z" fill="#FDFDFD"/>
<path d="M1328.68 84.7246H1328.96C1329.23 85.0004 1328.96 85.0004 1328.68 84.7246C1328.96 85.0004 1328.96 84.7246 1328.68 84.7246Z" fill="#FDFDFD"/>
<path d="M1310.21 93.273C1309.93 93.273 1309.93 93.273 1310.21 93.273C1309.93 93.273 1309.93 92.9972 1310.21 93.273C1310.21 92.9972 1310.21 93.273 1310.21 93.273Z" fill="#FDFDFD"/>
</g>
</svg>
