<svg width="1386" height="653" viewBox="0 0 1386 653" fill="none" xmlns="http://www.w3.org/2000/svg">
<g opacity="0.1">
<path d="M116.773 569.886C111.94 565.02 109.605 558.733 108.42 552.165C106.958 544.454 106.262 536.554 108.817 528.664C113.636 513.359 128.915 504.364 144.081 508.308C150.567 509.944 156.593 509.676 163.001 509.313C178.976 508.217 191.062 514.531 197.711 530.25C199.862 535.774 199.053 540.815 199.578 546.335C200.38 552.998 200.706 559.373 201.892 565.942C202.814 569.751 202.112 573.555 200.458 576.785C197.534 583.151 195.178 590.186 189.877 595.118C182.553 601.758 175.137 608.016 164.343 607.034C158.133 606.541 153.087 604.148 149.496 599.38C146.785 603.273 143.414 606.118 139 608.008C135.353 609.711 131.613 611.032 127.702 609.974C124.651 609.109 121.89 607.769 120.676 604.436C120.492 603.674 119.924 603.006 118.973 602.433C107.192 594.026 109.804 579.666 115.808 570.93C116.574 570.742 116.865 570.267 116.773 569.886ZM157.296 571.238C157.296 571.238 157.203 570.858 156.82 570.952C156.912 571.332 156.912 571.332 157.296 571.238C156.912 571.332 157.296 571.238 157.296 571.238C159.091 573.622 163.569 575.348 167.494 574.788C170.943 573.941 174.775 573.001 178.224 572.154C180.523 571.59 181.964 570.833 181.992 567.598C180.736 569.117 179.892 567.307 178.451 568.064C174.803 569.766 171.262 570.232 167.337 570.791C163.888 571.638 160.454 570.867 157.296 571.238ZM156.004 587.695C155.223 589.501 154.35 590.926 153.094 592.444C151.838 593.963 151.824 595.581 153.052 597.297C156.735 602.445 162.271 603.508 168.203 602.859C177.003 602.313 182.887 596.43 188.77 590.548C192.432 587.228 193.624 582.094 195.859 577.913C198.095 573.733 198.521 568.787 197.797 564.123C196.81 556.698 195.639 548.512 195.71 540.425C195.753 535.572 194.355 531.477 192.098 527.189C186.172 516.135 176.648 512.017 164.214 512.647C157.423 513.103 150.631 513.56 143.762 512.018C129.838 508.172 116.184 517.172 112.529 530.578C108.981 542.747 111.656 553.791 116.816 565.034C117.383 565.701 117.845 567.606 119.193 566.468C120.541 565.33 122.656 564.004 121.812 562.193C119.739 558.667 119.108 554.384 118.568 550.481C117.504 541.058 118.632 532.308 125.864 525.288C127.503 523.675 128.944 522.918 131.243 522.353C134.784 521.888 138.709 521.328 142.25 520.862C149.425 520.312 156.784 520.523 163.64 523.683C167.259 525.215 170.204 527.317 173.824 528.85C178.777 530.862 182.567 534.774 182.908 539.532C182.971 543.148 184.093 546.101 185.306 549.434C187.272 554.197 187.613 558.956 185.562 563.897C184.49 566.178 183.986 569.126 184.632 571.792C185.094 573.696 184.987 574.933 184.022 575.977C181.417 578.634 179.856 582.245 177.727 585.188C175.598 588.132 173.377 590.694 169.637 592.016C164.272 593.333 160.283 590.276 156.004 587.695ZM151.547 572.649C150.994 570.364 150.149 568.554 149.595 566.269C148.659 564.078 148.197 562.173 147.261 559.982C145.295 555.219 142.151 553.973 137.446 556.339C133.124 558.61 128.419 560.975 125.325 564.963C122.905 568.381 120.392 571.419 117.972 574.837C113.225 582.055 114.105 590.716 118.54 597.294C119.86 599.391 122.436 599.969 123.756 602.066C125.829 605.592 128.589 606.932 132.805 605.898C141.236 603.828 146.352 598.134 150.334 591.104C153.825 585.406 152.732 579.218 151.547 572.649ZM150.248 557.232C154.017 552.675 158.261 548.406 161.646 543.943C164.449 540.431 168.203 537.492 170.531 533.693C171.205 533.124 172.17 532.08 171.602 531.412C169.516 529.503 166.663 527.783 164.179 527.585C162.078 527.294 161.773 529.386 161.284 530.717C157.87 538.414 153.598 545.919 149.709 553.329C148.928 555.135 148.822 556.371 150.248 557.232ZM145.905 551.035C148.985 548.665 149.78 545.242 149.24 541.339C148.517 536.675 146.934 531.818 146.593 527.059C146.529 523.444 144.521 523.533 142.129 523.716C141.746 523.811 140.98 523.999 140.597 524.093C138.588 524.182 138.389 525.038 138.851 526.942C139.681 530.37 140.511 533.798 140.959 537.319C141.391 542.458 141.349 547.311 145.905 551.035ZM157.437 555.064C165.393 552.708 171.461 547.587 178.28 543.896C178.955 543.327 179.629 542.758 179.061 542.09C178.124 539.899 177.28 538.089 175.96 535.992C175.3 534.943 174.349 534.37 173.476 535.794C172.021 538.169 169.999 539.876 168.16 542.344C164.683 546.426 160.347 550.315 157.437 555.064ZM180.906 549.707C180.644 546.947 179.494 547.229 178.529 548.273C172.568 552.157 166.897 555.566 160.368 558.783C158.928 559.54 157.579 560.678 156.231 561.816C155.557 562.385 154.499 563.048 155.159 564.096C155.819 565.145 156.969 564.863 157.643 564.294C165.123 561.651 172.035 558.34 178.38 554.362C180.495 553.036 181.275 551.231 180.906 549.707ZM124.168 533.37C122.606 536.982 122.287 540.691 121.968 544.401C121.861 545.638 122.046 546.4 123.564 547.641C125.559 549.169 128.135 549.747 129.455 551.844C131.726 554.515 133.642 554.044 136.431 552.149C132.471 545.858 128.511 539.567 124.168 533.37ZM138.006 546.921C138.262 539.595 137.169 533.407 135.309 527.408C135.125 526.646 134.848 525.504 133.698 525.786C131.782 526.256 129.866 526.726 128.702 528.626C127.539 530.526 127.617 532.524 128.844 534.24C131.775 537.959 134.799 542.059 138.006 546.921ZM179.977 557.602C173.54 561.199 166.628 564.51 160.006 567.345C165.833 567.933 170.999 567.472 176.563 565.299C180.686 563.884 181.268 562.934 179.977 557.602ZM149.964 524.215C150.014 529.448 152.363 534.117 152.888 539.637C155.415 534.982 157.082 530.134 159.41 526.335C156.557 524.614 153.399 524.985 149.964 524.215ZM178.38 576.151C170.808 578.413 163.236 580.675 155.443 575.324C156.38 577.516 155.692 579.702 158.176 579.899C161.135 580.384 163.803 581.343 166.763 581.827C173.739 582.132 176.712 580.999 178.38 576.151ZM157.856 583.609C159.453 586.849 162.505 587.714 165.173 588.673C168.225 589.538 170.538 587.356 172.376 584.888C167.579 586.872 163.207 583.91 157.856 583.609ZM122.479 551.539C122.94 553.443 123.309 554.966 123.678 556.49C124.601 560.298 124.508 559.918 127.681 557.928C129.412 556.696 129.703 556.222 127.709 554.694C126.19 553.452 124.764 552.592 122.479 551.539Z" fill="#0A0A0A"/>
</g>
<g opacity="0.1">
<path d="M1349.81 26.5187C1347.31 25.0917 1345.61 23.5031 1344.06 22.0203C1342.68 20.6433 1341.77 18.8932 1341.29 17.195C1340.49 14.5949 1341.7 12.4141 1343.71 10.7622C1344.88 9.69678 1346.36 8.84295 1348.12 8.62568C1349.44 8.35648 1350.56 7.71611 1351.67 7.07574C1355.06 5.42001 1358.52 5.4105 1361.71 7.52607C1365.06 9.74741 1368.04 12.1822 1370.28 15.7343C1373.11 20.1346 1373.81 24.9656 1373.72 29.958C1373.67 32.4543 1373.79 35.0563 1373.05 37.5545C1372.05 40.7969 1371.48 44.0912 1368.77 46.4354C1367.93 47.022 1368.04 48.2432 1367.67 49.147C1366.19 53.4529 1363.06 55.7452 1359.14 57.5086C1358.5 57.7759 1358.29 58.0952 1358.4 58.6259C1358.56 59.4221 1358.4 60.0068 1357.82 60.5395C1353.95 63.9491 1349.71 66.8818 1344.35 67.6932C1343.29 67.9085 1342.33 67.9643 1341.32 67.7546C1339.89 67.493 1339.2 68.1853 1338.24 68.9315C1335.97 71.3276 1333.42 73.0872 1330.56 74.6353C1329.82 75.0622 1329.02 75.2237 1328.28 74.9602C1325.51 74.2774 1324.01 69.608 1325.76 67.3195C1326.29 66.5214 1326.5 66.2022 1325.54 65.5675C1324.9 65.1444 1324.32 64.2962 1323.89 63.5539C1322.4 60.9557 1322.6 58.5652 1324.56 56.6479C1326.79 54.6767 1330.08 54.5614 1332.26 56.4674C1333.75 57.6848 1335.35 58.7425 1336.79 59.6945C1337.74 60.3292 1338.43 60.3273 1339.17 59.21C1341.18 56.1772 1343.03 53.0387 1345.26 50.3772C1346.16 49.3656 1346.79 48.4079 1348.07 47.8733C1349.71 47.1252 1350.56 45.8483 1351.35 44.306C1352.4 42.0194 1352.98 39.4154 1354.78 37.3923C1355.1 36.9135 1354.51 35.375 1354.19 34.473C1353.6 32.9345 1352.38 31.6632 1352.05 30.0708C1351.94 28.1592 1351.04 27.0995 1349.81 26.5187ZM1371.91 26.4579C1371.31 22.8481 1370.77 19.5037 1368.8 16.5882C1367.25 14.415 1365.28 12.8802 1363.42 11.1859C1359.9 7.47793 1356.02 6.74509 1351.57 9.30659C1350.3 9.84118 1349.02 10.3758 1347.7 10.645C1345.84 11.0219 1344.3 12.3007 1343.3 14.1623C1342.03 16.7681 1343.52 18.6759 1345.02 20.5837C1346.51 22.4915 1348.58 23.8667 1350.66 25.2418C1351.46 25.7707 1351.83 25.5572 1352.36 24.7591C1353.1 22.9514 1354.53 21.8321 1356.38 21.4553C1359.67 20.6496 1362.65 21.7035 1365.68 22.3325C1368.23 22.6441 1370.09 24.3385 1371.91 26.4579ZM1367.39 24.6115C1364.73 23.0787 1361.22 22.8228 1357.77 22.8323C1355.86 22.9438 1354.27 23.9572 1353.58 26.0303C1353.21 27.6246 1353.48 28.9516 1354.18 30.3305C1355.24 32.1864 1356.42 33.8827 1356.32 36.1135C1356.32 36.8039 1356.59 36.7501 1357.17 36.9078C1361.9 37.0541 1364.77 40.3389 1367.39 43.6776C1368.13 44.6315 1368.34 44.3123 1368.77 43.6738C1369.08 43.1949 1369.4 42.7161 1369.56 42.1314C1370.61 39.8449 1371.09 37.4006 1371.56 34.9562C1372.13 30.9715 1371.43 27.5213 1367.39 24.6115ZM1351.2 47.6522C1353.54 50.3543 1356.36 52.6834 1358.07 55.6527C1360.03 54.4258 1362.53 53.7817 1364.17 51.6528C1366.23 48.8854 1368.13 45.3219 1364.62 42.3044C1362.81 40.8754 1361.48 39.0734 1359.03 38.6021C1357.44 38.2348 1356.06 38.929 1355.48 40.1521C1354.63 42.1194 1353.63 43.981 1352.79 45.9484C1352.1 46.6407 1351.83 47.3849 1351.2 47.6522ZM1341.32 65.6834C1342.54 65.5738 1343.49 65.518 1344.45 65.4623C1348.32 64.8143 1351.51 62.7874 1354.63 60.4951C1357.07 58.8951 1357.28 57.1951 1355.41 54.8103C1354.13 53.2737 1352.86 51.7371 1351.31 50.2543C1350.09 48.983 1348.97 48.933 1347.59 50.3176C1344.89 53.3523 1342.94 56.6504 1340.88 60.1081C1340.56 60.587 1339.45 61.9178 1341.31 62.2313C1342.32 62.441 1342.48 63.2372 1342.11 64.141C1342.11 64.8314 1341.74 65.0449 1341.32 65.6834ZM1332.25 71.391C1331.03 70.1198 1331.03 70.1197 1333.78 67.3505C1333.09 67.3524 1332.29 67.5139 1331.6 67.5158C1330.91 67.5177 1330.33 67.36 1330.22 66.8292C1330.11 66.2984 1330.59 65.9253 1331.07 65.5523C1332.18 64.9119 1333.03 64.3254 1334.25 63.5254C1333.02 62.9445 1331.91 62.2041 1330.84 61.729C1330.36 61.4117 1329.89 61.0944 1330.31 60.4559C1330.57 59.7117 1331.16 59.8694 1331.9 60.1329C1332.49 60.2906 1333.02 60.8733 1333.6 61.031C1334.83 61.6119 1335.89 62.0869 1337.75 61.71C1334.88 60.4964 1333.01 58.8021 1330.94 57.427C1329.02 56.1576 1326.42 56.9614 1325.42 58.823C1324.52 60.525 1325.27 62.8597 1327.66 64.4464C1329.26 65.5041 1329.37 66.0349 1328.15 67.5253C1326.72 69.335 1326.67 70.4504 1328.27 72.1986C1328.96 72.8871 1329.65 73.5756 1330.71 72.6698C1330.87 72.0852 1331.51 71.8179 1332.25 71.391Z" fill="#0A0A0A"/>
</g>
<g opacity="0.1">
<path d="M1365.34 552.725C1368.43 555.666 1369.92 559.581 1370.46 563.59C1370.85 565.324 1370.29 567.154 1369.23 568.368C1365.77 572.927 1361.81 576.872 1356.18 578.768C1353.26 579.8 1351.17 581.856 1348.89 584.081C1343.7 589.035 1338.72 593.821 1333.19 598.365C1325.25 604.557 1317.15 610.543 1309.25 616.361C1305.19 619.354 1301.85 622.794 1297.79 625.787C1293.94 628.612 1289.76 631.027 1285.24 633.032C1282.69 634.101 1280.44 635.952 1278.4 637.636C1276.19 639.114 1274.31 641.002 1272.43 642.89C1268.88 646.498 1265.07 645.181 1262.26 641.325C1259.78 637.879 1259.24 633.87 1261.01 629.333C1265.12 620.127 1269.39 611.127 1273.34 601.717C1275.03 597.926 1276.89 594.341 1278.21 590.514C1279.36 586.482 1281.96 582.969 1283.65 579.179C1285.34 575.388 1287.58 571.839 1287.85 567.156C1287.98 563.966 1288.45 561.186 1286.89 558.018C1286.09 556.62 1286.64 554.791 1287.16 553.335C1288.89 549.171 1292 546.273 1295.98 544.026C1300.57 541.274 1305.55 540.257 1310.44 538.288C1312.01 537.688 1313.7 537.666 1315.19 537.812C1317.42 538.031 1319.69 537.877 1321.95 537.723C1329.5 537.334 1336.96 535.994 1344.31 539.542C1348.25 541.437 1352.68 542.249 1356.17 544.853C1359.67 547.457 1363.24 549.316 1365.34 552.725ZM1301.15 575.057C1301.19 574.684 1301.23 574.311 1300.85 574.274C1300.48 574.238 1300.82 574.648 1300.78 575.021C1299.51 576.404 1299.14 576.367 1298.55 574.801C1297.91 573.609 1297.65 572.453 1299.09 571.275C1298.31 571.575 1296.93 570.309 1297.12 572.211C1297.21 573.163 1297.97 574.933 1297.19 575.233C1295.26 575.797 1296.84 576.894 1296.39 577.604C1295.74 578.482 1294.96 578.782 1293.88 578.3C1293.34 578.058 1293.04 577.275 1292.5 577.034C1291.59 580.524 1293.04 581.044 1298.7 580.845C1298.36 580.436 1298.19 580.231 1297.86 579.821C1297.53 579.411 1297.39 578.833 1297.8 578.497C1298.21 578.16 1298.59 578.197 1299.12 578.438C1301.21 580.15 1300.82 578.416 1300.93 577.296C1301 576.55 1301.45 575.84 1301.15 575.057ZM1356.38 574.831C1354.73 574.48 1353.8 572.504 1351.9 572.695C1351.32 572.827 1351.23 571.876 1351.27 571.502C1351.49 569.263 1352.46 567.097 1354.46 565.787C1355.69 564.777 1356.92 563.768 1357.98 562.553C1360.95 559.077 1363.26 558.55 1366.33 559.793C1366.03 559.01 1365.73 558.227 1365.43 557.445C1365.27 557.24 1365.1 557.035 1364.93 556.83C1360.08 550.889 1354.33 546.368 1347.08 543.771C1345.26 543.215 1343.27 542.455 1341.65 541.73C1338.78 540.319 1335.64 539.821 1332.8 540.107C1328.63 540.452 1324.54 540.05 1320.5 540.972C1318.98 541.199 1317.29 541.221 1315.63 540.87C1314.72 540.592 1313.57 540.856 1312.58 541.324C1307.73 542.92 1302.71 544.311 1298.12 547.063C1295.12 548.841 1292.84 551.066 1291.39 554.315C1290.7 555.566 1290.75 556.89 1291.35 558.456C1292.41 561.01 1292.89 563.695 1292.06 566.439C1291.74 567.727 1291.63 568.846 1291.68 570.171C1292.63 570.075 1293.41 569.775 1293.86 569.065C1294.51 568.187 1294.96 567.478 1296.11 567.214C1298.66 566.145 1301.04 564.872 1303.72 564.381C1306.77 563.927 1310.22 563.137 1313.29 564.38C1315.11 564.936 1317.07 566.07 1319.06 566.831C1324.08 569.208 1326.18 572.618 1325.16 577.227C1324.73 579.635 1323.43 581.391 1321.92 583.316C1319.77 586.118 1317.31 588.138 1314.65 590.326C1309.95 594.198 1304.89 595.962 1298.85 594.426C1293.71 593.168 1290.63 590.227 1289.86 584.688C1289.68 582.785 1289.08 581.22 1288.56 578.908C1284.68 585.874 1281.91 592.95 1278.6 599.784C1279.38 599.484 1279.58 599.316 1279.82 598.774C1280.88 597.56 1281.78 596.14 1282.84 594.925C1283.49 594.047 1284.71 593.037 1285.76 593.893C1286.96 594.954 1288.12 594.691 1289.48 594.259C1290.63 593.995 1292.12 594.141 1293.6 594.287C1296 594.711 1298.09 596.423 1297.86 598.662C1297.7 602.226 1296.28 605.102 1293.59 607.663C1291.5 609.719 1288.62 610.378 1285.61 610.459C1284.87 610.386 1284.08 610.686 1283.3 610.986C1281.74 611.586 1280.66 611.104 1279.66 609.874C1278.15 608.031 1277.43 605.887 1277.48 603.443C1277.69 603.275 1277.72 602.902 1277.35 602.865C1276.98 602.828 1276.94 603.202 1276.91 603.575C1275.53 606.077 1274.53 608.617 1273.15 611.119C1271.33 614.332 1270.75 618.232 1268.73 621.612C1268.04 622.864 1266.57 624.415 1266.79 625.944C1266.98 627.847 1265.96 628.688 1265.27 629.94C1264.75 631.396 1264.06 632.647 1264.62 634.586C1265.05 635.947 1264.53 637.403 1265.33 638.801C1266.59 641.186 1268.04 641.705 1270.05 640.395C1270.66 639.89 1271.28 639.385 1271.89 638.88C1273.73 637.365 1275.44 635.272 1277.41 634.336C1282.13 632.162 1285.56 627.976 1289.44 624.778C1290.87 623.6 1291.97 622.012 1293.44 620.461C1291.41 620.073 1290.28 618.266 1288.21 618.251C1287.47 618.178 1286.97 617.564 1286.87 616.613C1286.74 616.035 1287.19 615.325 1287.77 615.193C1289.46 615.171 1290.15 613.92 1291.34 613.283C1293.14 612.141 1294.8 612.492 1296.14 614.131C1296.97 615.155 1297.03 616.48 1297.08 617.804C1300.39 614.738 1304.5 613.069 1307.81 610.003C1307.14 609.183 1306.4 609.11 1305.54 610.157C1304.69 611.203 1303.74 611.298 1303.93 609.432C1303.96 609.059 1303.8 608.854 1303.83 608.481C1302.14 604.735 1304 601.15 1308 600.6C1309.52 600.373 1310.68 600.11 1312.2 599.883C1313.35 599.619 1314.3 599.524 1315.38 600.007C1316.63 600.694 1316.51 601.814 1316.57 603.138C1319.27 600.577 1322.13 598.22 1324.83 595.659C1323.34 595.513 1322.43 595.235 1321.39 594.379C1319.97 593.487 1320.21 592.945 1321.11 591.526C1323.91 587.845 1328.15 586.754 1332.06 585.253C1332.63 585.122 1333.38 585.195 1333.51 585.773C1333.97 586.761 1334.38 586.424 1335 585.919C1335.81 585.246 1336.5 583.994 1337.49 583.526C1340.48 581.748 1342.64 578.945 1345.09 576.925C1346.73 575.579 1346.54 573.676 1344.79 572.374C1344.26 572.132 1343.55 571.686 1343.62 570.94C1343.57 569.615 1342.32 568.928 1341.24 568.445C1334.77 565.548 1327.82 563.734 1320.62 562.462C1312.88 560.949 1305 560.928 1297.13 562.604C1296.35 562.904 1295.53 563.577 1294.9 562.385C1294.44 561.397 1295.59 561.134 1296.2 560.629C1296.61 560.292 1297.19 560.16 1297.6 559.824C1300.11 559.128 1302.79 558.638 1305.26 558.315C1310.74 557.912 1315.95 558.424 1321.49 559.345C1328.32 560.581 1334.73 562.153 1341.04 564.845C1344.65 566.33 1347.84 568.152 1349.33 572.066C1349.8 573.054 1350.97 574.488 1349.74 575.498C1346.67 578.022 1344.44 581.571 1341.21 583.891C1336.71 587.594 1332.38 591.502 1328.01 595.783C1322.82 600.737 1317.84 605.523 1312.15 609.863C1310.51 611.21 1308.67 612.725 1307.03 614.071C1311.05 611.451 1314.9 608.626 1318.54 605.97C1324.19 602.003 1329.14 597.59 1334.63 593.419C1339.13 589.716 1343.12 585.398 1347.66 581.322C1350.02 578.351 1353.01 576.573 1356.38 574.831C1356.71 575.241 1356.92 575.072 1357.12 574.904C1356.75 574.868 1356.38 574.831 1356.38 574.831ZM1315.75 584.97C1318.58 582.987 1320.32 580.521 1321.53 577.813C1322.7 575.479 1322.26 572.421 1320.51 571.118C1316.14 567.863 1311.12 565.485 1305.43 566.057C1301.63 566.438 1295.96 568.707 1294.21 571.173C1295.68 569.621 1297.58 569.431 1299.48 569.24C1300.8 569.182 1301.34 569.423 1301.8 570.411C1303.83 574.567 1303.05 578.635 1301.15 582.594C1301.69 582.835 1302.43 582.908 1302.97 583.15C1303.89 583.428 1304.56 584.247 1304.28 585.162C1303.59 586.413 1304.22 587.606 1304.31 588.557C1304.57 589.713 1304.67 590.664 1303.81 591.711C1306.4 590.269 1309.61 590.02 1311.94 587.422C1309.59 588.322 1307.53 588.308 1306.23 586.296C1304.59 583.874 1306.84 582.022 1308.01 579.688C1307.03 580.157 1305.82 579.096 1305.13 580.347C1304.89 580.888 1304.98 581.84 1304.07 581.562C1303.16 581.284 1303.23 580.537 1303.31 579.791C1303.4 576.974 1303.66 574.362 1304.13 571.581C1304.63 568.428 1306.97 567.527 1309.67 568.734C1310.75 569.217 1311.45 569.663 1312.53 570.146C1316.51 571.668 1316.86 573.775 1313.89 577.251C1313.44 577.961 1311.92 578.188 1312.22 578.971C1312.85 580.163 1313.91 578.948 1314.65 579.021C1315.6 578.926 1316.14 579.168 1316.64 579.782C1317.14 580.397 1317.07 581.143 1316.62 581.853C1316.88 583.009 1316.44 583.719 1315.75 584.97ZM1283.56 597.069C1282.2 597.501 1282.39 599.403 1281.37 600.245C1280.14 601.255 1279.83 602.543 1279.51 603.831C1279.16 605.492 1279.92 607.262 1280.92 608.491C1281.76 609.516 1282.99 608.506 1283.94 608.411C1285.26 608.352 1286.24 607.883 1287.56 607.825C1288.51 607.729 1289.29 607.429 1290.07 607.129C1292.66 605.688 1293.66 603.148 1294.83 600.814C1295.8 598.648 1295 597.251 1292.6 596.827C1290.94 596.476 1289.42 596.703 1288.06 597.134C1287.11 597.23 1286.17 597.325 1285.29 596.674C1284.62 595.854 1284.05 595.986 1283.56 597.069ZM1358.11 570.667C1359.28 568.333 1362.37 567.506 1363.58 564.798C1363.85 563.884 1364.3 563.174 1363.8 562.559C1363.3 561.945 1362.65 562.823 1361.86 563.123C1359.65 564.601 1357.94 566.694 1356.4 568.992C1355.75 569.87 1355.71 570.243 1356.21 570.858C1356.88 571.677 1357.33 570.967 1358.11 570.667ZM1304.24 604.376C1305.32 604.859 1306.4 605.342 1307.27 605.993C1307.98 606.439 1308.35 606.476 1308.97 605.971C1310.4 604.793 1311.66 603.41 1312.59 601.617C1309.88 602.481 1306.44 601.2 1304.24 604.376ZM1295.54 589.955C1293.77 586.956 1293.81 586.583 1297.56 582.806C1295.13 582.756 1292.82 583.283 1291.15 581.234C1291.72 584.871 1291.76 588.266 1295.54 589.955ZM1292.38 625.444C1296.94 623.065 1300.28 619.626 1304 616.223C1299.48 618.228 1295.93 621.836 1292.38 625.444ZM1307.03 572.62C1306.82 572.788 1306.82 572.788 1306.62 572.957C1306.34 573.871 1305.99 575.532 1306.36 575.569C1307.44 576.052 1308.51 576.534 1309.39 577.185C1310.26 577.837 1311.49 576.827 1312.35 575.78C1309.87 576.103 1307.68 575.51 1307.03 572.62ZM1311.73 572.517C1307.79 570.622 1307.79 570.622 1306.93 571.669C1309.03 571.31 1309.57 571.551 1309.69 574.2C1309.96 573.285 1310.58 572.78 1311.73 572.517ZM1297.32 587.116C1298.44 587.226 1298.87 588.587 1299.93 587.372C1300.37 586.662 1300.07 585.879 1299.91 585.674C1298.62 585.36 1298.14 586.443 1297.32 587.116ZM1364.49 568.845C1362.27 570.323 1361.14 572.284 1359.5 573.631C1361.48 572.694 1363.32 571.179 1364.49 568.845ZM1322.97 591.708C1324.49 591.481 1324.49 591.481 1326 589.557C1324.47 589.784 1323.99 590.867 1322.97 591.708ZM1290.59 616.978C1291.88 617.292 1292.38 617.907 1293.03 617.029C1293.44 616.692 1293.31 616.114 1292.77 615.873C1292.06 615.427 1291.78 616.341 1290.59 616.978ZM1312.24 584.436C1310.91 584.495 1310.62 583.712 1310.08 583.471C1309.67 583.807 1309.22 584.517 1309.56 584.927C1310.26 585.373 1310.88 584.868 1312.24 584.436Z" fill="#060606"/>
<path d="M1300.73 575.037C1300.94 574.869 1300.43 574.255 1300.81 574.292C1301.18 574.328 1301.14 574.7 1301.11 575.073C1300.9 575.241 1300.73 575.037 1300.73 575.037Z" fill="#FBFBFB"/>
<path d="M1276.42 603.767C1276.46 603.394 1276.49 603.021 1276.87 603.058C1277.24 603.094 1277.2 603.467 1277 603.635C1276.79 603.803 1276.79 603.803 1276.42 603.767Z" fill="#FBFBFB"/>
<path d="M1356.41 574.626C1356.79 574.662 1356.79 574.662 1357.16 574.699C1356.95 574.867 1356.75 575.035 1356.41 574.626C1356.21 574.794 1356.41 574.626 1356.41 574.626Z" fill="#FBFBFB"/>
<path d="M1330.31 570.461C1332.64 567.865 1336.03 567.82 1339.71 568.558C1341 568.872 1341.91 569.15 1342.13 570.678C1342.56 572.038 1341.91 572.916 1340.88 573.757C1338.84 575.439 1336.49 576.339 1333.76 575.506C1332.68 575.023 1331.6 574.541 1330.41 575.177C1328.84 575.777 1328.41 574.417 1327.91 573.803C1327.24 572.984 1328.23 572.516 1328.84 572.011C1328.92 571.265 1329.49 571.133 1330.31 570.461ZM1332.43 571.798C1334.63 572.39 1337.12 573.765 1339.08 571.132C1336.51 570.504 1334.28 570.285 1332.43 571.798Z" fill="#060606"/>
<path d="M1276.78 618.268C1277.19 617.932 1277.64 617.223 1278.35 617.669C1279.26 617.946 1278.98 618.86 1278.94 619.233C1278.96 620.929 1279.35 622.662 1279.37 624.358C1279.28 627.173 1277.23 628.855 1274.63 628.599C1272.76 628.417 1271.76 627.189 1272.11 625.529C1272.95 622.787 1274.74 619.95 1276.78 618.268ZM1276.75 622.407C1276.95 622.238 1276.78 622.034 1276.78 622.034C1276.78 622.034 1276.58 622.202 1276.37 622.37C1275.69 623.62 1275.2 624.702 1274.89 625.989C1276.99 625.631 1277.23 625.09 1276.75 622.407Z" fill="#060606"/>
<path d="M1276.37 622.371C1276.57 622.203 1276.78 622.034 1276.78 622.034C1277.15 622.071 1276.94 622.239 1276.74 622.408C1276.57 622.203 1276.37 622.371 1276.37 622.371Z" fill="#FBFBFB"/>
</g>
<g opacity="0.1">
<path d="M69.0589 130.313C68.6909 128.072 68.5093 126.017 67.9532 124.335C67.3981 122.28 68.523 120.416 68.7147 118.362L69.0891 117.99C69.4625 117.991 69.835 118.365 69.8341 118.739C70.3911 120.047 70.7608 121.542 71.3178 122.85C72.4307 125.84 73.9162 129.205 72.6005 132.749C76.9018 129.959 82.1299 129.972 86.6138 128.862C87.1744 128.677 87.5469 129.051 87.3598 129.238C86.7964 130.543 87.7286 131.106 87.913 132.04C88.4663 134.842 87.5305 135.773 84.7311 135.206C82.3052 134.64 79.5021 135.567 76.8854 136.681L77.0716 136.868C83.6062 137.071 87.7048 140.815 91.9888 145.12C97.0177 150.174 98.3096 156.338 99.0409 162.689C99.4043 166.797 97.9014 170.528 95.8389 174.07C92.6496 180.224 87.7831 185.067 81.9853 188.974C80.1154 190.089 78.4309 191.766 76.561 192.882C72.4478 195.112 68.3364 196.596 63.8534 197.332C59.5575 197.881 55.6388 196.938 51.91 194.688C49.4859 193.375 46.8737 192.622 45.0111 190.75C42.7751 188.878 41.2878 186.26 39.6133 183.829C38.3104 182.145 37.3809 180.462 36.6395 178.22C36.2688 177.099 35.7101 176.537 34.2173 176.16C31.0454 175.219 28.2497 173.158 25.6402 171.284C25.0815 170.723 24.3355 170.348 23.7767 169.786C21.9123 168.661 20.6094 166.978 19.6809 164.921C17.8229 161.183 16.7118 157.445 17.2815 153.526C17.8494 150.353 17.2952 147.924 16.1822 144.934C14.6977 141.196 15.2683 136.903 16.2115 132.984C16.7776 130.558 18.6503 128.322 20.3357 126.273C25.9537 119.565 33.2461 115.288 42.2112 114.19C47.8145 113.457 52.8526 114.776 57.7008 117.402C61.2434 119.464 64.2235 122.459 66.0815 126.198C67.199 127.321 67.5688 128.816 69.0589 130.313ZM78.5288 151.809C78.5279 152.182 78.1535 152.555 78.5269 152.556C78.9004 152.556 79.2747 152.184 79.0894 151.623C81.5254 148.082 78.7406 141.54 74.4476 140.969C74.0741 140.968 73.8879 140.781 73.5135 141.154C73.3254 141.713 73.6989 141.714 74.2586 141.902C76.3083 143.588 78.1709 145.459 78.3498 148.634C78.1608 149.567 78.1581 150.687 78.5288 151.809ZM18.6073 145.874C21.2423 137.291 31.5332 128.541 35.2666 128.923C33.7701 130.04 32.4608 130.97 31.3387 131.714C25.9134 135.996 22.1654 141.588 20.468 148.492C19.901 151.292 19.3349 153.718 19.701 156.706C20.4287 164.55 25.6457 169.044 31.2371 173.165C34.4054 175.6 38.325 176.17 42.2474 175.62C43.7411 175.623 45.422 175.441 46.7286 175.631C47.102 175.631 47.4754 175.632 47.4736 176.379C47.4727 176.753 47.2855 176.939 46.9121 176.938C45.6037 177.495 44.4825 177.866 42.9897 177.489C41.6831 177.299 40.1894 177.295 38.8829 177.105C39.2536 178.226 39.8114 179.161 40.3693 180.096C41.1088 183.085 42.9705 185.331 45.3927 187.39C48.9335 190.2 52.6623 192.45 56.9526 194.141C60.6833 195.643 64.7901 196.027 68.3409 194.729C73.7607 192.688 78.4364 189.525 81.9954 184.866C85.5544 180.207 88.5538 175.36 89.8759 169.201C91.1971 163.416 90.2768 157.999 88.049 152.766C87.3058 151.27 86.1891 149.774 84.511 148.836C84.3211 150.142 85.4395 150.892 84.6908 151.637C84.1284 152.569 84.1266 153.316 84.1247 154.063C84.1238 154.436 84.3092 154.997 83.7477 155.556C83.5605 155.742 83.0008 155.554 82.8145 155.367C82.442 154.992 82.4429 154.619 82.631 154.059C83.1944 152.754 82.0832 149.017 80.9648 148.267C81.1428 151.815 78.3361 154.236 77.3948 157.407C77.2067 157.967 76.8332 157.966 76.4598 157.965C75.9001 157.777 76.0882 157.217 76.0891 156.844C76.4662 155.351 76.8433 153.858 76.8479 151.991C76.8561 148.63 76.3037 145.455 73.1346 143.393C72.7621 143.019 72.5758 142.832 72.0152 143.017C70.1481 143.012 68.6562 142.262 68.2873 140.394C68.1038 139.086 67.3597 137.964 66.8027 136.656C65.8733 134.973 64.5695 133.663 63.4528 132.167C62.3362 130.67 60.4718 129.545 58.0431 130.099C57.4825 130.285 56.9228 130.097 56.3622 130.282C55.9888 130.281 55.6154 130.28 55.6163 129.907C55.6172 129.533 55.8044 129.347 55.9915 129.161C56.5521 128.975 57.4862 128.791 58.7936 128.607C56.9311 126.736 55.0657 125.984 52.827 125.232C50.7745 124.667 48.3476 124.474 45.9199 124.655C46.8557 123.724 47.6035 123.352 48.5376 123.168C53.5812 122.246 58.2449 123.938 62.3454 126.936C63.4638 127.685 64.3969 127.874 65.5172 127.877C64.774 126.382 64.0308 124.886 63.1005 123.577C57.1439 116.093 47.8126 114.203 39.7779 116.611C33.425 118.463 28.0025 121.624 23.3223 126.653C19.7651 130.566 17.7007 134.855 17.3144 140.082C17.1236 141.762 16.7447 144.002 18.6073 145.874ZM82.9258 186.175C84.0461 186.178 84.2342 185.618 84.6085 185.246C87.4161 182.452 89.8503 179.657 92.0991 176.302C96.9711 169.219 99.0428 161.942 95.1414 153.903C93.8413 151.099 92.9155 147.923 90.6804 145.677C89.9353 144.928 89.5637 144.18 88.4444 143.804C89.0013 145.113 89.7454 146.235 90.3024 147.543C90.6749 147.917 90.674 148.291 90.2996 148.663C90.1125 148.85 89.739 148.849 89.5528 148.662C88.8068 148.286 88.0609 147.911 87.5012 147.723C94.936 161.558 93.9708 174.439 82.9258 186.175ZM85.6761 130.541C82.129 130.345 78.9516 131.644 75.7752 132.57C73.5327 133.312 72.4079 135.176 70.9096 137.039C70.7215 137.599 71.0931 138.347 71.4656 138.721C72.0244 139.283 72.2134 138.35 72.5877 137.977C73.5245 136.672 74.8338 135.742 76.3284 135.372C79.5049 134.446 82.496 132.96 86.2266 134.463C85.2963 133.154 85.1128 131.846 85.6761 130.541ZM88.2508 146.604C86.9497 144.174 85.8358 141.557 83.2255 140.057C80.9886 138.558 78.9361 137.993 76.3193 139.107C80.7959 140.985 84.3357 144.168 88.2508 146.604ZM69.6405 121.539C69.257 125.646 70.181 129.569 71.2912 133.679C73.3565 129.017 71.1251 125.277 69.6405 121.539ZM63.6473 128.993C66.0705 130.679 68.1184 133.112 69.4186 135.915C70.359 133.117 67.567 129.563 63.6473 128.993ZM86.7946 131.29C86.2312 132.596 86.4166 133.156 87.3479 134.092C87.3506 132.972 87.1653 132.411 86.7946 131.29ZM76.1376 137.052C76.3248 136.866 76.511 137.053 76.511 137.053C76.511 137.053 76.6982 136.867 76.512 136.68L76.1385 136.679C76.3248 136.866 76.1376 137.052 76.1376 137.052Z" fill="#020202"/>
</g>
</svg>
